<?xml version="1.0" encoding="utf-8"?>
<!-- Generator: Adobe Illustrator 16.0.0, SVG Export Plug-In . SVG Version: 6.00 Build 0)  -->
<!DOCTYPE svg PUBLIC "-//W3C//DTD SVG 1.1//EN" "http://www.w3.org/Graphics/SVG/1.1/DTD/svg11.dtd">
<svg version="1.1" id="图层_1" xmlns="http://www.w3.org/2000/svg" xmlns:xlink="http://www.w3.org/1999/xlink" x="0px" y="0px"
	 width="128px" height="128px" viewBox="0 0 128 128" enable-background="new 0 0 128 128" xml:space="preserve">
<g>
	<path fill-rule="evenodd" clip-rule="evenodd" fill="#18A0C6" d="M62.262,77.517c-5.708-8.045-10.522-18.582-14.289-28.553
		c-2.925-7.738-0.629-15.592,6.51-20.863c5.817-4.295,13.333-4.166,19.317,0.258c7.107,5.254,9.136,13.234,6.1,20.988
		c-3.816,9.75-8.667,20.15-14.201,28.17C65.047,78.462,62.925,78.45,62.262,77.517z M69.459,39.96c0,3.141-2.545,5.686-5.685,5.686
		s-5.685-2.545-5.685-5.686c0-3.139,2.545-5.684,5.685-5.684S69.459,36.821,69.459,39.96z"/>
	<g>
		<path fill="#3899C1" d="M56.479,93.944c-0.416-0.041-0.645-0.27-0.686-0.686c0-0.414,0.228-0.623,0.686-0.623h2.368
			c0.748-0.041,1.1,0.333,1.059,1.122c-0.042,3.573-1.662,5.358-4.86,5.358c-3.075-0.125-4.736-2.015-4.985-5.67
			c0.207-3.697,1.932-5.629,5.172-5.795c2.077,0.084,3.385,0.686,3.926,1.807c-0.042,0.416-0.271,0.645-0.686,0.686
			c-0.167,0-0.437-0.125-0.81-0.374c-0.832-0.581-1.662-0.872-2.493-0.872c-2.243,0.124-3.448,1.642-3.614,4.549
			c0.125,2.949,1.349,4.466,3.676,4.548c1.952-0.124,3.032-1.267,3.24-3.427v-0.623H56.479z"/>
		<path fill="#3899C1" d="M63.259,98.493c0,0.416-0.229,0.623-0.686,0.623c-0.458,0-0.685-0.207-0.685-0.623v-9.97
			c0-0.498,0.249-0.748,0.748-0.748h2.742c2.326,0.125,3.572,1.309,3.739,3.552c-0.208,2.161-1.433,3.345-3.676,3.552h-2.181V98.493
			z M63.259,93.633h2.119c1.454-0.083,2.222-0.851,2.306-2.306c-0.084-1.536-0.873-2.325-2.368-2.367h-2.056V93.633z"/>
		<path fill="#3899C1" d="M76.581,88.96c0,0.374-0.208,0.582-0.624,0.623c-0.167,0-0.374-0.083-0.623-0.249
			c-0.499-0.291-1.039-0.437-1.62-0.437c-1.122,0.084-1.724,0.623-1.807,1.62c0.166,0.997,0.913,1.62,2.243,1.869
			c1.827,0.249,2.887,1.33,3.178,3.24c-0.167,2.243-1.455,3.406-3.863,3.489c-1.911-0.083-2.97-0.498-3.178-1.246
			c0-0.499,0.208-0.748,0.623-0.748c0.125,0,0.332,0.084,0.623,0.249c0.706,0.416,1.35,0.623,1.932,0.623
			c1.454-0.082,2.243-0.851,2.367-2.305c-0.166-1.08-0.956-1.766-2.367-2.057c-1.745-0.249-2.763-1.267-3.053-3.053
			c0.249-1.828,1.371-2.805,3.365-2.929C75.438,87.775,76.373,88.212,76.581,88.96z"/>
	</g>
</g>
</svg>
