<?xml version="1.0" standalone="no"?><!DOCTYPE svg PUBLIC "-//W3C//DTD SVG 1.1//EN" "http://www.w3.org/Graphics/SVG/1.1/DTD/svg11.dtd"><svg width="200" height="200" viewBox="0 0 200 200" version="1.1" xmlns="http://www.w3.org/2000/svg" xmlns:xlink="http://www.w3.org/1999/xlink"><defs><style type="text/css"><![CDATA[
@font-face {
  font-family: "ifont";
  src: url("//at.alicdn.com/t/font_1442373896_4754455.eot?#iefix") format("embedded-opentype"), url("//at.alicdn.com/t/font_1442373896_4754455.woff") format("woff"), url("//at.alicdn.com/t/font_1442373896_4754455.ttf") format("truetype"), url("//at.alicdn.com/t/font_1442373896_4754455.svg#ifont") format("svg");
}

]]></style></defs><g class="transform-group"><g transform="scale(0.1953125, 0.1953125)"><path d="M513.548387 589.419355c3.096774-5.16129 6.193548-9.806452 8.774194-14.967742 12.387097-21.16129 31.483871-30.451613 49.548387-28.387097-12.903226-21.16129-28.387097-40.774194-46.451613-58.83871-94.967742-94.967742-94.967742-247.741935 0-340.645161 13.935484-13.935484 13.935484-36.645161 0-52.129032-13.935484-13.935484-36.645161-13.935484-52.129032 0C413.419355 154.322581 381.419355 232.258065 381.419355 315.870968c0 84.129032 32 162.064516 91.870968 221.419355C489.290323 552.774194 502.709677 570.322581 513.548387 589.419355zM173.419355 147.096774c13.935484-13.935484 13.935484-36.645161 0-52.129032-13.935484-13.935484-36.645161-13.935484-52.129032 0C61.419355 154.83871 29.419355 232.774194 29.419355 316.387097c0 83.612903 32 162.064516 91.870968 221.419355 46.451613 43.870968 70.709677 105.290323 70.709677 169.290323 0 64-24.258065 125.419355-70.193548 171.354839-13.935484 13.935484-13.935484 36.645161 0 52.129032 7.741935 7.741935 17.032258 10.83871 25.806452 10.83871s18.580645-3.096774 25.806452-10.83871c59.870968-59.870968 91.870968-137.806452 91.870968-221.419355 0-83.612903-32-162.064516-91.870968-221.419355C78.451613 392.774194 78.451613 240 173.419355 147.096774zM903.225806 486.193548c-45.935484-45.935484-70.193548-105.290323-70.193548-171.354839 0-64 24.258065-125.419355 70.193548-171.354839 13.935484-13.935484 13.935484-36.645161 0-52.129032-13.935484-13.935484-36.645161-13.935484-52.129032 0-59.870968 59.870968-91.870968 137.806452-91.870968 221.419355 0 83.612903 32 162.064516 91.870968 221.419355 95.483871 96.516129 95.483871 249.290323 0.516129 342.709677-13.935484 13.935484-13.935484 36.645161 0 52.129032 7.741935 7.741935 17.032258 10.83871 25.806452 10.83871 9.290323 0 18.580645-3.096774 25.806452-10.83871 59.870968-59.870968 91.870968-137.806452 91.870968-221.419355C995.096774 624 963.096774 545.548387 903.225806 486.193548zM782.451613 881.032258c-55.225806-96-111.483871-191.483871-167.741935-286.967742-20.129032-34.064516-58.83871-34.064516-78.967742 0-58.322581 96.516129-115.612903 193.548387-173.419355 290.064516-7.741935 13.419355-13.935484 27.354839-5.677419 42.83871 8.774194 16 24.258065 16.516129 39.741935 16.516129l369.032258 0c15.483871-0.516129 27.354839-11.354839 26.322581-26.83871C791.225806 904.774194 788.645161 891.354839 782.451613 881.032258zM571.870968 890.83871c-15.483871 0-27.354839-11.870968-27.354839-27.354839 0-14.967742 11.870968-26.83871 27.354839-26.83871 16-0.516129 27.354839 11.354839 27.354839 26.83871S587.354839 890.83871 571.870968 890.83871zM600.258065 729.806452c0 17.548387 0 35.096774 0 53.16129 0 16.516129-11.870968 28.387097-27.354839 28.387097-14.967742 0-27.354839-12.387097-27.354839-28.903226 0-36.129032 0-72.258065 0-108.387097 0-16 11.870968-27.870968 26.83871-27.870968 14.967742 0 27.354839 12.387097 27.870968 28.387097C600.258065 692.645161 600.258065 711.225806 600.258065 729.806452z" fill="#272636"></path></g></g></svg>