<?xml version="1.0" standalone="no"?><!DOCTYPE svg PUBLIC "-//W3C//DTD SVG 1.1//EN" "http://www.w3.org/Graphics/SVG/1.1/DTD/svg11.dtd"><svg width="200" height="200" viewBox="0 0 200 200" version="1.1" xmlns="http://www.w3.org/2000/svg" xmlns:xlink="http://www.w3.org/1999/xlink"><defs><style type="text/css"><![CDATA[
@font-face {
  font-family: "ifont";
  src: url("//at.alicdn.com/t/font_1442373896_4754455.eot?#iefix") format("embedded-opentype"), url("//at.alicdn.com/t/font_1442373896_4754455.woff") format("woff"), url("//at.alicdn.com/t/font_1442373896_4754455.ttf") format("truetype"), url("//at.alicdn.com/t/font_1442373896_4754455.svg#ifont") format("svg");
}

]]></style></defs><g class="transform-group"><g transform="scale(0.1953125, 0.1953125)"><path d="M548.267 559.778q0-19.336-7.65-36.474t-20.7-29.883-30.6-20.215-37.35-7.471l-256.5 0q-19.8 0-37.35 7.471t-30.6 20.215-20.7 29.883-7.65 36.474l0 251.367q0 19.336 7.65 36.914t20.7 30.323 30.6 20.215 37.35 7.471l256.5 0q19.8 0 37.35-7.471t30.6-20.215 20.7-30.323 7.65-36.914l0-251.367zM878.567 739.076q26.1 0 45-18.457t18.9-43.945l0-146.778q0-26.367-18.9-44.825t-45-18.457l-152.1 0q-26.1 0-45.45 18.457t-19.35 44.825l0 146.778q0 25.489 19.35 43.945t45.45 18.457l152.1 0zM878.567 409.486q26.1 0 45-18.457t18.9-43.945l0-147.656q0-25.489-18.9-43.945t-45-18.457l-152.1 0q-26.1 0-45.45 18.457t-19.35 43.945l0 147.656q0 25.489 19.35 43.945t45.45 18.457l152.1 0zM484.367 409.486q26.1 0 45.45-18.457t19.35-43.945l0-147.656q0-25.489-19.35-43.945t-45.45-18.457l-152.1 0q-26.1 0-45 18.457t-18.9 43.945l0 147.656q0 25.489 18.9 43.945t45 18.457l152.1 0z" fill="#272636"></path></g></g></svg>