<?xml version="1.0" encoding="utf-8"?>
<!-- Generator: Adobe Illustrator 16.0.0, SVG Export Plug-In . SVG Version: 6.00 Build 0)  -->
<!DOCTYPE svg PUBLIC "-//W3C//DTD SVG 1.1//EN" "http://www.w3.org/Graphics/SVG/1.1/DTD/svg11.dtd">
<svg version="1.1" id="图层_1" xmlns="http://www.w3.org/2000/svg" xmlns:xlink="http://www.w3.org/1999/xlink" x="0px" y="0px"
	 width="128px" height="128px" viewBox="0 0 128 128" enable-background="new 0 0 128 128" xml:space="preserve">
<g>
	<path fill-rule="evenodd" clip-rule="evenodd" d="M23.674,99.99c-1-0.395-1.411-1.139-1.21-2.254
		c0.155-0.859,0.546-1.627,0.968-2.385c0.747-1.342,1.624-2.613,2.224-4.035c0.227-0.578,0.435-1.168,0.923-1.596
		c0.16-0.211,0.344-0.41,0.476-0.637c2.459-4.24,4.912-8.482,7.364-12.727c0.043-0.076,0.056-0.168,0.083-0.252
		c0.07-0.375,0.192-0.721,0.511-0.963c0.24-0.422,0.48-0.846,0.721-1.27c0.132-0.328,0.188-0.705,0.563-0.879
		c0.729-1.107,1.419-2.238,1.955-3.455c0.095-0.346,0.322-0.607,0.55-0.869c1.055-1.592,1.774-3.383,2.819-4.967
		c1.513-2.293,2.758-4.74,4.197-7.072c0.202-0.328,0.436-0.65,0.396-1.07l-0.009,0.012c0.532-0.387,0.58-1.104,1.044-1.535
		c0.173-0.193,0.076-0.543,0.383-0.656c1.118-1.65,1.984-3.443,2.978-5.162c1.968-3.408,4.032-6.762,5.936-10.203
		c1.182-2.137,2.55-4.166,3.602-6.379c0.438-0.922,1.185-1.693,1.711-2.58c0.85-1.428,2.843-1.283,3.836-0.229
		c0.142,0.15,0.296,0.289,0.445,0.434c0.466,0.223,0.627,0.641,0.711,1.109c2.068,3.883,4.362,7.635,6.548,11.449
		c1.284,2.24,2.589,4.469,3.885,6.701c0.455,0.127,0.407,0.57,0.56,0.889c1.75,3.064,3.488,6.137,5.254,9.193
		c3.262,5.646,6.541,11.281,9.812,16.922c0.495,0.279,0.614,0.781,0.754,1.271c1.336,2.342,2.663,4.691,4.01,7.027
		c2.252,3.908,4.534,7.801,6.766,11.721c0.585,1.027,1.194,2.098,0.749,3.373c-0.182,0.523-0.484,0.941-1.071,1.066
		c-8.779-0.021-17.557-0.006-26.335-0.008c-17.557-0.004-35.114,0-52.67,0C24.632,99.977,24.153,99.965,23.674,99.99z"/>
	<path fill-rule="evenodd" clip-rule="evenodd" fill="#F4DF26" d="M32.414,95.215c14.339,0,28.678-0.002,43.017,0
		c7.169,0.002,14.339-0.012,21.508,0.006c0.479-0.102,0.726-0.449,0.875-0.883c0.364-1.055-0.133-1.939-0.611-2.789
		c-1.824-3.242-3.687-6.461-5.527-9.693c-1.1-1.934-2.183-3.877-3.274-5.814c-0.114-0.404-0.211-0.82-0.616-1.051
		c-2.671-4.666-5.35-9.328-8.014-13.998c-1.442-2.527-2.862-5.068-4.292-7.604c-0.125-0.264-0.086-0.629-0.457-0.734
		c-1.058-1.848-2.125-3.689-3.172-5.543c-1.785-3.156-3.66-6.26-5.349-9.471c-0.067-0.387-0.199-0.732-0.58-0.918
		c-0.122-0.119-0.248-0.234-0.363-0.357c-0.812-0.873-2.438-0.994-3.133,0.189c-0.43,0.732-1.04,1.369-1.398,2.133
		c-0.859,1.832-1.976,3.51-2.941,5.277c-1.555,2.846-3.241,5.619-4.848,8.439c-0.812,1.422-1.519,2.904-2.432,4.268
		c-0.251,0.096-0.171,0.385-0.313,0.545c-0.38,0.357-0.418,0.949-0.853,1.268l0.007-0.008c0.033,0.346-0.158,0.613-0.324,0.885
		c-1.175,1.93-2.192,3.953-3.428,5.852c-0.854,1.309-1.44,2.791-2.302,4.107c-0.186,0.215-0.371,0.432-0.449,0.717
		c-0.437,1.008-1.001,1.943-1.597,2.861c-0.305,0.143-0.351,0.453-0.46,0.725c-0.196,0.35-0.392,0.701-0.588,1.051
		c-0.261,0.199-0.36,0.486-0.418,0.795c-0.022,0.07-0.031,0.146-0.067,0.209c-2.002,3.51-4.006,7.021-6.014,10.527
		c-0.108,0.188-0.258,0.352-0.389,0.525c-0.399,0.355-0.568,0.842-0.754,1.32c-0.49,1.178-1.206,2.229-1.817,3.338
		c-0.344,0.627-0.664,1.262-0.791,1.973c-0.164,0.924,0.172,1.539,0.989,1.863C31.63,95.207,32.022,95.215,32.414,95.215z"/>
	<path fill-rule="evenodd" clip-rule="evenodd" d="M80.868,67.631c-0.012,0.135-0.007,0.262,0.125,0.344
		c0.428,0.195,0.246,0.646,0.403,0.955c-0.016,0.242,0.034,0.463,0.219,0.637c0.321,0.635,0.322,1.385,0.718,1.994
		c0.27,0.957,0.216,1.957,0.372,2.93c0.12,0.75-0.172,1.082-0.935,1.086c-3.834,0.018-7.667,0.004-11.501-0.01
		c-0.409-0.002-0.775-0.102-0.959-0.523c-0.158-0.305-0.161-0.652-0.237-0.979c-0.072-0.355-0.17-0.701-0.296-1.041
		c-0.031-0.068-0.058-0.139-0.086-0.209c-0.073-0.17-0.178-0.32-0.295-0.467c-0.05-0.061-0.095-0.125-0.139-0.191
		c-0.487-0.691-1.148-1.191-1.827-1.672c-0.083-0.17-0.01-0.314,0.074-0.455c0.25-0.24,0.451-0.51,0.524-0.861
		c0.041-0.111,0.096-0.213,0.212-0.266c0.657-0.287,0.714-0.992,1.045-1.506c0.18-0.754,0.556-1.4,1.072-1.971
		c0.063-0.123,0.126-0.246,0.19-0.369c0.274-0.635,0.595-1.244,0.936-1.844c0.206-0.193,0.351-0.434,0.508-0.666
		c0.117-0.191,0.235-0.383,0.352-0.574c0.162-0.207,0.171-0.494,0.365-0.686c0.042-0.033,0.05-0.074,0.023-0.121
		c0.182-0.545,0.5-1.018,0.761-1.523c0.323-0.623,0.752-0.666,1.318-0.307c2.999,1.898,5.322,4.406,6.888,7.604
		C80.807,67.162,80.746,67.416,80.868,67.631z"/>
	<path fill-rule="evenodd" clip-rule="evenodd" d="M46.916,67.604c0.71-1.195,1.421-2.391,2.131-3.584
		c0.626-1.225,1.568-2.152,2.714-2.889l-0.001,0.002c0.313-0.572,0.861-0.842,1.417-1.1h0c0.125-0.211,0.304-0.371,0.493-0.518
		c0.82-0.637,1.129-0.568,1.627,0.342c0.13,0.236,0.304,0.443,0.479,0.646c0.327,0.543,0.609,1.107,0.781,1.723
		c0.536,0.559,0.86,1.238,1.108,1.961c-0.051,0.418,0.444,0.539,0.493,0.902c0.295,0.133,0.234,0.547,0.535,0.676
		c0.908,1.328,1.609,2.771,2.39,4.17c0.173,0.311,0.148,0.596-0.114,0.801c-0.539,0.418-0.955,0.979-1.555,1.322
		c-0.724,0.875-1.069,1.881-1.047,3.016c-0.074,0.371-0.368,0.34-0.635,0.336c-3.858-0.049-7.715,0.104-11.572,0.08
		c-0.367-0.002-0.892,0.15-0.987-0.48c0.058-2.23,0.335-4.422,1.184-6.512C46.491,68.164,46.61,67.826,46.916,67.604z"/>
	<path fill-rule="evenodd" clip-rule="evenodd" d="M58.947,93.275c-0.333-0.18-0.686-0.291-1.063-0.33
		c-1.034-0.094-1.912-0.602-2.819-1.041c-0.625-0.301-0.727-0.738-0.404-1.313c0.409-0.729,0.819-1.455,1.246-2.174
		c1.466-2.457,2.886-4.945,4.339-7.412c0.181-0.307,0.339-0.631,0.619-0.871c0.323-0.16,0.621-0.012,0.924,0.078
		c0.167,0.061,0.332,0.131,0.501,0.189c1.005,0.293,2.009,0.381,3.014-0.004c0.212-0.078,0.423-0.16,0.641-0.221
		c0.604-0.219,1.083-0.09,1.388,0.51c1.831,3.123,3.645,6.256,5.477,9.379c0.746,1.273,0.647,1.559-0.721,2.135
		c-1.422,0.598-2.812,1.303-4.398,1.387c-1.198,0.146-2.343,0.701-3.602,0.369c-0.722-0.188-1.452,0.256-2.194,0.096
		c-0.66-0.262-1.347-0.406-2.057-0.441C59.507,93.594,59.186,93.541,58.947,93.275z"/>
	<path fill-rule="evenodd" clip-rule="evenodd" d="M64.625,78.898c-0.848,0.121-1.654-0.059-2.446-0.34
		c-2.331-1.766-2.566-3.836-0.689-6.07c1.346-0.963,2.772-1.061,4.268-0.389h-0.002c0.675,0.139,1.121,0.564,1.367,1.178
		c0.43,1.066,0.884,2.145,0.19,3.283c-0.157,0.303-0.314,0.604-0.47,0.906c-0.171,0.314-0.417,0.555-0.726,0.73
		c-0.18,0.113-0.359,0.223-0.539,0.334C65.344,78.873,64.956,78.811,64.625,78.898z"/>
</g>
</svg>
