<?xml version="1.0" standalone="no"?><!DOCTYPE svg PUBLIC "-//W3C//DTD SVG 1.1//EN" "http://www.w3.org/Graphics/SVG/1.1/DTD/svg11.dtd"><svg width="200" height="200" viewBox="0 0 200 200" version="1.1" xmlns="http://www.w3.org/2000/svg" xmlns:xlink="http://www.w3.org/1999/xlink"><defs><style type="text/css"><![CDATA[
@font-face {
  font-family: "ifont";
  src: url("//at.alicdn.com/t/font_1442373896_4754455.eot?#iefix") format("embedded-opentype"), url("//at.alicdn.com/t/font_1442373896_4754455.woff") format("woff"), url("//at.alicdn.com/t/font_1442373896_4754455.ttf") format("truetype"), url("//at.alicdn.com/t/font_1442373896_4754455.svg#ifont") format("svg");
}

]]></style></defs><g class="transform-group"><g transform="scale(0.1953125, 0.1953125)"><path d="M627.800999 384.332468c0 61.685514 52.171828 111.504496 116.517083 111.504496 64.447552 0 116.517083-49.716683 116.517083-111.504496 0-61.378621-62.299301-86.236963-115.391808-240.297303C707.593207 268.633766 627.800999 322.953846 627.800999 384.332468zM138.306494 397.221978C138.306494 459.214386 185.977223 509.237962 244.696104 509.237962c59.025774 0 106.696503-50.023576 106.696503-112.015984 0-61.992408-56.877522-86.850749-105.468931-242.036364C211.142458 280.704895 138.306494 335.22957 138.306494 397.221978zM341.776623 749.842158c0 89.91968 73.654346 162.96024 164.494705 162.96024 90.738062 0 164.494705-73.142857 164.494705-162.96024 0-89.91968-88.078322-126.133067-162.96024-351.188012C454.0995 580.846354 341.776623 659.922478 341.776623 749.842158z" fill="#272636"></path></g></g></svg>