<?xml version="1.0" standalone="no"?><!DOCTYPE svg PUBLIC "-//W3C//DTD SVG 1.1//EN" "http://www.w3.org/Graphics/SVG/1.1/DTD/svg11.dtd"><svg width="200" height="200" viewBox="0 0 200 200" version="1.1" xmlns="http://www.w3.org/2000/svg" xmlns:xlink="http://www.w3.org/1999/xlink"><defs><style type="text/css"><![CDATA[
@font-face {
  font-family: "ifont";
  src: url("//at.alicdn.com/t/font_1442373896_4754455.eot?#iefix") format("embedded-opentype"), url("//at.alicdn.com/t/font_1442373896_4754455.woff") format("woff"), url("//at.alicdn.com/t/font_1442373896_4754455.ttf") format("truetype"), url("//at.alicdn.com/t/font_1442373896_4754455.svg#ifont") format("svg");
}

]]></style></defs><g class="transform-group"><g transform="scale(0.1953125, 0.1953125)"><path d="M987.136 464.554667l-85.162667-239.445333c-6.144-17.237333-22.186667-28.672-40.106667-28.672l-90.794667 0c-23.552 0-42.666667 19.456-42.666667 43.349333 0 23.893333 19.114667 43.349333 42.666667 43.349333l60.757333 0 54.613333 153.429333L142.848 436.565333l54.613333-153.429333 60.757333 0c23.552 0 42.666667-19.456 42.666667-43.349333 0-23.893333-19.114667-43.349333-42.666667-43.349333L167.424 196.437333c-18.090667 0-34.133333 11.434667-40.106667 28.672L41.984 464.554667c-1.877333 4.778667-2.901333 10.069333-2.901333 15.530667l0 500.394667c0 23.893333 19.114667 43.349333 42.666667 43.349333l865.28 0c23.552 0 42.666667-19.456 42.666667-43.349333l0-500.394667C989.866667 474.624 988.842667 469.333333 987.136 464.554667zM315.392 118.101333c17.749333 0 35.328 0 53.077333 0 4.266667 0 4.266667 0 4.266667 4.266667 0 41.813333 0 83.456 0 125.269333 0 7.168 0.682667 14.165333 2.730667 20.821333 7.68 25.258667 24.234667 41.984 49.664 49.322667 12.8 3.754667 26.112 2.901333 39.424 2.56 7.338667-0.170667 14.677333-1.194667 21.674667-3.584 29.525333-10.069333 48.810667-36.522667 48.981333-67.754667 0.170667-26.624 0-53.248 0-79.872 0-26.965333 0.170667-54.101333 0-81.066667-0.170667-15.872 12.8-29.696 27.648-30.549333 7.509333-0.341333 14.848-0.170667 22.357333-0.170667 2.218667 0 4.608 0.341333 6.826667 0.853333 13.653333 3.072 23.552 15.189333 23.552 29.525333 0 42.325333 0 84.650667 0 126.976 0 3.072-0.853333 3.925333-3.925333 3.925333-17.749333-0.170667-35.669333 0-53.418667 0-0.853333 0-2.218667-0.512-2.730667 0.512-0.512 1.024 0.682667 1.706667 1.194667 2.56 25.088 32.085333 50.176 64 75.264 95.914667 2.218667 2.901333 2.389333 2.901333 4.778667 0 26.112-31.914667 52.224-63.829333 78.165333-95.914667 0.682667-0.853333 2.048-1.536 1.365333-2.730667-0.512-1.024-2.048-0.512-3.072-0.512-16.896 0-33.792 0-50.688 0-6.314667 0-5.802667 0.682667-5.802667-5.632 0-40.618667 0-81.237333 0-122.026667 0-12.629333-2.048-24.917333-8.192-36.181333-11.093333-20.309333-27.989333-32.938667-50.858667-37.205333-10.069333-1.877333-20.138667-0.853333-30.378667-1.024-7.509333-0.170667-14.848 0.682667-22.016 2.901333-22.016 6.826667-37.205333 20.992-46.250667 42.154667-3.925333 9.386667-5.12 19.114667-5.12 29.184 0 30.549333 0 61.098667 0 91.477333 0 23.04 0.170667 45.909333-0.170667 68.949333-0.170667 13.482667-10.922667 25.770667-24.234667 27.818667-9.557333 1.365333-19.285333 0.682667-28.842667 0.341333-5.290667-0.170667-10.24-2.389333-14.506667-5.632-8.874667-6.656-12.629333-15.701333-12.629333-26.624 0-41.472 0-82.944 0-124.416 0-4.437333 0-4.437333 4.608-4.437333 17.237333 0 34.645333 0 51.882667 0 1.194667 0 2.730667 0.512 3.413333-0.512 0.682667-1.194667-0.853333-2.218667-1.706667-3.242667-1.706667-2.389333-3.584-4.778667-5.461333-6.997333-23.04-29.354667-46.08-58.88-69.12-88.234667-2.218667-2.901333-2.218667-2.901333-4.437333-0.170667-26.282667 32.085333-52.394667 64.170667-78.677333 96.256-0.512 0.682667-1.706667 1.365333-1.194667 2.56C313.344 118.442667 314.538667 118.101333 315.392 118.101333z" fill="#272636"></path></g></g></svg>