<?xml version="1.0" encoding="utf-8"?>
<!-- Generator: Adobe Illustrator 16.0.0, SVG Export Plug-In . SVG Version: 6.00 Build 0)  -->
<!DOCTYPE svg PUBLIC "-//W3C//DTD SVG 1.1//EN" "http://www.w3.org/Graphics/SVG/1.1/DTD/svg11.dtd">
<svg version="1.1" id="图层_1" xmlns="http://www.w3.org/2000/svg" xmlns:xlink="http://www.w3.org/1999/xlink" x="0px" y="0px"
	 width="128px" height="128px" viewBox="0 0 128 128" enable-background="new 0 0 128 128" xml:space="preserve">
<g>
	<polygon fill="#3899C1" points="64,19.532 51.75,45.405 60.458,42.031 54.063,82.635 64,71.843 73.813,82.635 67.5,41.989 
		76.25,45.489 	"/>
	<g>
		<path fill="#3899C1" d="M60.638,92.645c1.172-0.081,1.697,0.465,1.576,1.637c-0.203,2.546-0.203,4.851,0,6.911
			c0.202,2.144,0.505,3.234,0.909,3.274c0.122-0.04,0.183-0.304,0.183-0.788c0.04-0.161,0.061-0.282,0.061-0.364
			c0.081-0.444,0.303-0.667,0.667-0.667c0.364,0.082,0.545,0.344,0.545,0.788c-0.041,1.011-0.182,1.737-0.424,2.183
			c-0.606,1.051-1.314,1.01-2.122-0.121c-0.525-0.809-0.87-2.001-1.03-3.577c-0.082-0.767-0.122-1.677-0.122-2.728
			c-0.041-0.889-0.041-2.365,0-4.426c0.04-0.606-0.162-0.869-0.606-0.788h-7.336c-0.484-0.04-0.707,0.182-0.667,0.666v2.001
			c0,3.031-0.101,5.134-0.303,6.306c-0.203,1.212-0.627,2.222-1.273,3.031c-0.324,0.403-0.647,0.524-0.97,0.363
			c-0.324-0.242-0.364-0.586-0.121-1.03c0.524-0.566,0.869-1.354,1.03-2.364c0.202-1.01,0.303-2.486,0.303-4.426v-4.184
			c-0.04-1.172,0.505-1.737,1.638-1.697H60.638z M59.243,94.463c0.323,0.162,0.444,0.445,0.364,0.849
			c-0.485,1.496-1.173,3.012-2.062,4.548c1.051,1.576,1.879,3.112,2.486,4.607c0.161,0.403,0.081,0.687-0.243,0.849
			c-0.364,0.121-0.647-0.021-0.849-0.425c-0.526-1.131-1.233-2.444-2.122-3.94c-1.253,1.697-2.446,2.991-3.577,3.88
			c-0.405,0.282-0.728,0.304-0.971,0.061c-0.202-0.282-0.121-0.585,0.243-0.909c1.333-1.131,2.546-2.525,3.638-4.184
			c-0.931-1.414-1.799-2.586-2.607-3.516c-0.283-0.323-0.283-0.606,0-0.849c0.282-0.202,0.585-0.161,0.91,0.121
			c0.485,0.484,1.273,1.516,2.364,3.092c0.768-1.293,1.313-2.525,1.637-3.698C58.576,94.545,58.838,94.383,59.243,94.463z"/>
		<path fill="#3899C1" d="M77.095,93.796c0.888-0.039,1.313,0.405,1.273,1.334v9.7c0.04,0.809-0.243,1.273-0.849,1.395
			c-0.566,0.161-1.658,0.061-3.274-0.303c-0.405-0.082-0.566-0.324-0.485-0.728c0.121-0.404,0.383-0.586,0.788-0.546
			c1.01,0.282,1.677,0.403,2,0.363c0.323,0,0.485-0.182,0.485-0.545v-9.095c0-0.242-0.121-0.363-0.363-0.363H66.97
			c-0.364-0.04-0.526,0.121-0.485,0.485v10.307c-0.041,0.363-0.243,0.565-0.606,0.605c-0.404-0.04-0.627-0.242-0.667-0.605V95.009
			c-0.081-0.889,0.323-1.293,1.213-1.213h3.94c0.161-0.363,0.364-0.909,0.606-1.637c0.202-0.444,0.525-0.606,0.97-0.485
			c0.444,0.162,0.585,0.466,0.424,0.91l-0.485,1.212H77.095z M75.761,102.041c0,0.89-0.385,1.314-1.152,1.273h-5.457
			c-0.97,0.041-1.435-0.303-1.395-1.03v-4.79c0-0.728,0.404-1.07,1.213-1.03h5.638c0.808-0.04,1.191,0.303,1.152,1.03V102.041z
			 M69.032,101.678c-0.041,0.324,0.1,0.465,0.424,0.425h4.729c0.202,0,0.303-0.161,0.303-0.485V98.04
			c0-0.282-0.122-0.425-0.364-0.425h-4.668c-0.324-0.039-0.465,0.122-0.424,0.485V101.678z"/>
	</g>
</g>
</svg>
