<?xml version="1.0" encoding="utf-8"?>
<!-- Generator: Adobe Illustrator 16.0.0, SVG Export Plug-In . SVG Version: 6.00 Build 0)  -->
<!DOCTYPE svg PUBLIC "-//W3C//DTD SVG 1.1//EN" "http://www.w3.org/Graphics/SVG/1.1/DTD/svg11.dtd">
<svg version="1.1" id="图层_1" xmlns="http://www.w3.org/2000/svg" xmlns:xlink="http://www.w3.org/1999/xlink" x="0px" y="0px"
	 width="600px" height="137px" viewBox="0 0 600 137" enable-background="new 0 0 600 137" xml:space="preserve">
<g>
	<g>
		<polygon fill="#221714" points="64.028,86.551 60.171,86.551 54.703,72.612 51.855,86.551 48.006,86.551 52.25,65.777 
			56.107,65.777 61.593,79.679 64.425,65.777 68.277,65.777 		"/>
		<polygon fill="#221714" points="124.3,86.551 120.107,86.551 123.644,69.27 117.694,69.27 118.365,65.777 134.312,65.777 
			133.642,69.27 127.843,69.27 		"/>
		<path fill="#221714" d="M137.205,65.777h4.17l-2.439,11.297l-0.59,2.775c-0.051,0.224-0.094,0.526-0.135,0.887
			c0,0.758,0.313,1.385,0.953,1.882c0.641,0.49,1.57,0.734,2.789,0.734c1.1,0,2.006-0.203,2.719-0.581
			c0.711-0.393,1.27-0.969,1.664-1.745c0.4-0.758,0.797-2.064,1.199-3.897l2.316-11.352h4.197l-2.4,11.748
			c-0.512,2.298-1.092,4.064-1.758,5.284c-0.66,1.223-1.668,2.206-3.01,2.977c-1.352,0.765-3.045,1.142-5.098,1.142
			c-2.461,0-4.336-0.597-5.646-1.784c-1.305-1.182-1.959-2.719-1.959-4.59c0.016-0.377,0.068-0.792,0.162-1.244
			c0.023-0.303,0.188-1.169,0.477-2.584L137.205,65.777z"/>
		<path fill="#221714" d="M159.8,74.852h2.215c2.244,0,3.738-0.129,4.463-0.402c0.736-0.277,1.311-0.713,1.723-1.294
			c0.416-0.593,0.625-1.205,0.625-1.841c0-0.759-0.301-1.328-0.898-1.704c-0.367-0.225-1.164-0.341-2.395-0.341h-4.584L159.8,74.852
			z M157.41,86.551h-4.195l4.252-20.773h9.002c1.557,0,2.76,0.176,3.619,0.494c0.867,0.333,1.568,0.921,2.096,1.787
			c0.531,0.876,0.799,1.928,0.799,3.156c0,1.775-0.525,3.234-1.553,4.383c-1.033,1.141-2.6,1.858-4.695,2.123
			c0.541,0.494,1.044,1.141,1.508,1.945c0.936,1.622,1.973,3.927,3.113,6.885h-4.49c-0.354-1.171-1.059-2.995-2.105-5.479
			c-0.57-1.336-1.178-2.239-1.828-2.708c-0.395-0.274-1.078-0.407-2.064-0.407h-1.701L157.41,86.551z"/>
		<polygon fill="#221714" points="173.644,86.551 177.896,65.777 192.88,65.777 192.169,69.27 181.332,69.27 180.333,73.943 
			190.832,73.943 190.115,77.435 179.601,77.435 178.406,83.07 190.162,83.07 189.447,86.551 		"/>
		<path fill="#221714" d="M215.031,79.102l4.207,0.648c-0.83,2.321-2.052,4.112-3.701,5.337c-1.639,1.231-3.568,1.841-5.773,1.841
			c-2.471,0-4.412-0.763-5.805-2.294c-1.404-1.535-2.1-3.762-2.1-6.668c0-2.368,0.469-4.529,1.404-6.498
			c0.928-1.962,2.229-3.463,3.887-4.508c1.662-1.04,3.471-1.56,5.422-1.56c2.189,0,3.967,0.605,5.316,1.804
			c1.359,1.203,2.156,2.842,2.395,4.906l-4.008,0.402c-0.221-1.198-0.648-2.082-1.285-2.621c-0.621-0.539-1.467-0.817-2.512-0.817
			c-1.146,0-2.223,0.365-3.223,1.083c-0.992,0.727-1.795,1.841-2.396,3.379c-0.6,1.522-0.898,3.053-0.898,4.583
			c0,1.671,0.385,2.957,1.168,3.864c0.781,0.914,1.758,1.369,2.924,1.369c1.076,0,2.063-0.355,2.965-1.077
			C213.917,81.562,214.591,80.5,215.031,79.102z"/>
		<polygon fill="#221714" points="220.906,86.551 225.158,65.777 229.349,65.777 225.81,83.07 236.083,83.07 235.363,86.551 		"/>
		<polygon fill="#221714" points="238.093,86.551 242.343,65.777 257.332,65.777 256.609,69.27 245.775,69.27 244.783,73.943 
			255.277,73.943 254.56,77.435 244.046,77.435 242.851,83.07 254.607,83.07 253.888,86.551 		"/>
		<path fill="#221714" d="M269.693,78.483l-1.201-8.359l-4.459,8.359H269.693z M270.199,81.968h-8.02l-2.451,4.583h-4.295
			l11.396-20.773h4.701l3.279,20.773h-3.963L270.199,81.968z"/>
		<polygon fill="#221714" points="293.509,86.551 289.666,86.551 284.191,72.612 281.341,86.551 277.49,86.551 281.744,65.777 
			285.599,65.777 291.08,79.679 293.921,65.777 297.765,65.777 		"/>
		<path fill="#CA2E42" d="M155.427,91.899c0,0-22.971-2.269-44.68-0.734l-11.016-60.73h-2.523l-37.932,86.5h7.256l29.148-66.803
			l8.025,41.68c-10.525,1.217-20.078,3.543-25.678,7.718c-0.646,0.485,4.582,6.881,4.582,6.881l23.204-3.676l2.762,14.365h6.879
			l-2.803-15.451l42.26-6.7L155.427,91.899z"/>
	</g>
	<g>
		<g>
			<g>
				<path fill="#1A1A1A" d="M414.115,49.386l-2.336-4.146h-15.919l-2.354,4.146h-2.969l11.16-19.682h4.197l11.137,19.682H414.115z
					 M410.523,42.924l-6.125-10.91h-1.057l-6.215,10.91H410.523z"/>
				<path fill="#1A1A1A" d="M424.257,29.704h22.371v2.31h-9.855v17.372h-2.621V32.014h-9.895V29.704z"/>
				<path fill="#1A1A1A" d="M459.13,29.704h2.625v9.675c0,2.854,0.025,4.574,0.088,5.159c0.074,0.759,0.291,1.297,0.648,1.634
					c0.355,0.336,0.943,0.556,1.771,0.664c1.367,0.161,3.332,0.243,5.898,0.243c3.521,0,5.939-0.104,7.27-0.313
					c0.789-0.125,1.344-0.37,1.664-0.73c0.324-0.357,0.51-0.95,0.557-1.771c0.049-0.737,0.082-2.363,0.1-4.885v-9.675h2.627v9.675
					c-0.023,2.629-0.068,4.441-0.146,5.437c-0.172,1.709-0.803,2.907-1.889,3.579c-0.672,0.402-1.488,0.659-2.451,0.763
					s-3.334,0.203-7.109,0.29c-3.316-0.049-5.303-0.09-5.957-0.124c-0.654-0.032-1.369-0.133-2.146-0.294
					c-1.301-0.278-2.254-1.008-2.857-2.193c-0.289-0.577-0.469-1.266-0.539-2.07c-0.074-0.805-0.123-2.601-0.152-5.387V29.704z"/>
				<path fill="#1A1A1A" d="M496.355,49.386V29.704h12.271c3.326,0.037,5.447,0.12,6.375,0.245c1.627,0.212,2.748,0.94,3.369,2.194
					c0.418,0.833,0.625,2.003,0.625,3.503c0,1.136-0.066,1.995-0.188,2.584c-0.123,0.592-0.348,1.065-0.666,1.423
					c-0.508,0.571-1.307,0.965-2.393,1.197c0.846,0.142,1.523,0.474,2.021,0.982c0.371,0.399,0.615,0.884,0.717,1.439
					c0.107,0.56,0.16,1.663,0.16,3.317v2.796h-2.625v-1.887c0-1.608-0.031-2.717-0.098-3.331c-0.195-1.252-0.9-1.98-2.121-2.193
					c-0.485-0.062-0.908-0.108-1.291-0.119c-0.381-0.018-1.674-0.029-3.887-0.034h-9.65v7.564H496.355z M498.976,39.507h9.65
					c2.559,0,4.197-0.032,4.918-0.107c0.723-0.069,1.309-0.253,1.758-0.538c0.67-0.444,1.008-1.53,1.008-3.26
					c0-1.489-0.309-2.455-0.934-2.898c-0.404-0.291-1.037-0.477-1.896-0.56c-0.861-0.088-2.482-0.13-4.854-0.13h-9.65V39.507z"/>
				<path fill="#1A1A1A" d="M532.681,49.386V29.704h19.299v2.31h-16.67v6.01h15.961v2.31H535.31v6.746h16.684v2.307H532.681z"/>
				<g>
					<g>
						<rect x="375.908" y="24.081" fill="#1A1A1A" width="2.305" height="25.366"/>
						<polygon fill="#1A1A1A" points="378.212,49.447 352.851,49.447 352.851,24.081 						"/>
					</g>
				</g>
			</g>
			<g>
				<path fill="#1A1A1A" d="M391.601,57.352h2.623v17.376h15.549v2.31h-18.172V57.352z"/>
				<path fill="#1A1A1A" d="M422.482,77.037V57.352h19.295v2.307h-16.672v6.016h15.961v2.307h-15.961v6.747h16.688v2.31H422.482z"/>
				<path fill="#1A1A1A" d="M476.705,77.037l-2.336-4.155h-15.922l-2.35,4.155h-2.971l11.164-19.686h4.191l11.137,19.686H476.705z
					 M473.115,70.572l-6.131-10.914h-1.055l-6.211,10.914H473.115z"/>
				<path fill="#1A1A1A" d="M492.011,57.352h4.369l17.246,17.26h0.609v-17.26h2.62v19.686h-4.441l-17.201-17.218h-0.578v17.218
					h-2.623V57.352z"/>
				<g>
					<polygon fill="#1A1A1A" points="375.908,74.79 355.158,74.79 355.158,74.79 355.158,54.034 375.908,54.034 378.212,51.731 
						352.851,51.731 352.851,77.096 378.212,77.096 378.212,74.79 375.908,74.79 					"/>
					<polygon fill="#1A1A1A" points="357.466,72.483 359.767,70.175 359.767,58.646 371.294,58.646 373.603,56.34 357.466,56.34 
											"/>
					<polygon fill="#1A1A1A" points="362.074,67.868 364.38,65.562 364.38,63.257 366.685,63.257 368.994,60.955 362.074,60.955 
											"/>
				</g>
			</g>
		</g>
		<g>
			<path fill="#1FA8DB" d="M379.528,102.312c1.965-0.078,2.321,1.614,1.061,5.076c-0.316,0.705-0.824,0.983-1.533,0.825
				c-0.631-0.394-0.826-0.945-0.592-1.653c0.711-1.494,0.592-2.165-0.354-2.008h-11.566c0.313,0.083,0.236,0.945-0.236,2.601h10.857
				c0.865,0,1.338,0.352,1.418,1.061c0,0.71-0.434,1.104-1.299,1.178h-11.803c-0.234,0.71-0.516,1.339-0.826,1.892h10.27
				c1.809,0,2.24,0.983,1.299,2.952c-0.867,1.887-2.322,3.538-4.369,4.955c2.438,1.104,5.586,1.846,9.445,2.244
				c0.705,0.075,1.06,0.473,1.06,1.178c-0.078,0.709-0.472,1.062-1.181,1.062c-4.482-0.473-8.379-1.492-11.684-3.068
				c-2.914,1.809-6.809,2.911-11.686,3.305c-0.866,0.079-1.377-0.277-1.535-1.061c0.076-0.711,0.549-1.104,1.416-1.183
				c3.462-0.232,6.572-0.905,9.326-2.003c-1.734-1.103-3.383-2.56-4.959-4.371c-1.73,2.128-3.816,3.859-6.254,5.196
				c-0.789,0.314-1.418,0.195-1.889-0.355c-0.398-0.627-0.197-1.179,0.59-1.651c3.777-2.045,6.57-5.076,8.379-9.091h-5.074
				c-0.787-0.073-1.182-0.468-1.182-1.178c0.078-0.709,0.514-1.061,1.299-1.061h5.785c0.393-0.946,0.629-1.813,0.707-2.601h-6.609
				c-0.709-0.075-1.023,0.277-0.945,1.062v1.065c0,0.784-0.352,1.178-1.061,1.178c-0.789,0-1.182-0.394-1.182-1.178v-2.244
				c-0.08-1.491,0.551-2.201,1.891-2.123h3.775c-0.236-0.472-0.707-1.181-1.416-2.126c-0.473-0.548-0.551-1.063-0.236-1.534
				c-0.631,0-1.221,0-1.771,0c-0.865-0.076-1.297-0.47-1.297-1.179c0.08-0.709,0.549-1.065,1.416-1.065
				c3.617,0.24,7.396,0.278,11.33,0.12c3.855-0.157,7.357-0.51,10.505-1.061c0.786-0.158,1.258,0.115,1.415,0.824
				c0,0.709-0.393,1.141-1.178,1.297c-0.553,0.08-1.223,0.163-2.008,0.237c-0.393,0.078-0.707,0.117-0.945,0.117
				c0.787,0.314,1.023,0.869,0.709,1.653c-0.393,1.024-0.825,1.928-1.299,2.716H379.528z M367.017,102.312
				c-0.16-0.552-0.514-1.376-1.064-2.479c-0.156-0.314-0.197-0.667-0.117-1.062v-0.119c-1.572,0.078-3.346,0.119-5.313,0.119
				c0.63,0.705,1.182,1.456,1.654,2.239c0.236,0.477,0.195,0.908-0.119,1.302H367.017z M363.949,113.758
				c1.18,1.812,2.951,3.268,5.311,4.371c1.416-0.788,2.596-1.692,3.541-2.716c0.943-1.021,1.102-1.571,0.471-1.655H363.949z
				 M372.683,102.312c1.1-1.181,1.807-2.363,2.123-3.541c0.078-0.314,0.314-0.551,0.707-0.709c-0.707,0.079-2.164,0.195-4.365,0.354
				c-1.498,0.083-2.598,0.16-3.307,0.236c0.473,0.866,0.982,2.085,1.535,3.66H372.683z"/>
			<path fill="#1FA8DB" d="M423.505,99.359c-0.314-0.394-0.672-0.825-1.063-1.298c-0.316-0.311-0.514-0.551-0.592-0.709
				c-0.551-0.705-0.588-1.298-0.116-1.771c0.549-0.469,1.18-0.432,1.887,0.12c0.867,0.866,1.611,1.809,2.244,2.832
				c0.236,0.315,0.352,0.589,0.352,0.825h8.5c1.258,0.079,1.926,0.71,2.006,1.892v5.544c0,1.418-0.67,2.086-2.006,2.008h-19.83
				v3.304c0,4.646-0.787,8.304-2.36,10.979c-0.394,0.629-0.945,0.824-1.652,0.588c-0.633-0.395-0.789-0.946-0.473-1.65
				c0.866-1.65,1.416-3.342,1.655-5.075c0.313-1.655,0.47-4.131,0.47-7.436v-8.145c-0.234-1.493,0.51-2.165,2.243-2.008H423.505z
				 M415.48,101.604c-0.473-0.08-0.67,0.156-0.592,0.708v4.248h18.531c0.709,0,1.021-0.236,0.943-0.706v-3.542
				c0-0.472-0.158-0.708-0.473-0.708H415.48z M433.89,111.282c1.967-0.079,2.912,0.63,2.834,2.123v7.792
				c-0.08,1.257-0.748,1.924-2.006,2.003h-15.227c-2.201,0.078-3.266-0.631-3.188-2.123v-7.319c0-1.099,0.158-1.767,0.473-2.002
				c0.238-0.316,0.945-0.474,2.126-0.474H433.89z M434.363,113.994c0-0.39-0.234-0.589-0.707-0.589h-13.811
				c-0.865-0.079-1.26,0.277-1.18,1.062v5.666c0,0.472,0.354,0.708,1.063,0.708h13.809c0.549,0,0.826-0.157,0.826-0.469V113.994z"/>
			<path fill="#1FA8DB" d="M471.732,99.476v6.848h2.832c0.629,0,0.982,0.393,1.063,1.181c-0.08,0.789-0.434,1.183-1.063,1.183
				h-2.832v8.617c1.02-0.395,2.084-0.945,3.188-1.655c0.707-0.394,1.297-0.235,1.77,0.473c0.314,0.632,0.117,1.183-0.59,1.651
				c-2.125,1.26-5.076,2.4-8.852,3.425c-0.787,0.153-1.297-0.079-1.533-0.709c-0.236-0.631,0-1.104,0.705-1.419
				c0.238-0.074,0.512-0.156,0.828-0.231c0.943-0.241,1.691-0.477,2.242-0.709v-9.442h-2.363c-0.629,0-0.982-0.394-1.059-1.183
				c0.076-0.788,0.43-1.181,1.059-1.181h2.363v-6.848h-2.479c-0.633,0-0.943-0.389-0.943-1.178c0-0.71,0.311-1.062,0.943-1.062
				h7.672c0.707,0,1.1,0.352,1.18,1.062c-0.08,0.789-0.473,1.178-1.18,1.178H471.732z M492.623,96.764
				c0.629,0,0.984,0.394,1.061,1.179c-0.076,0.787-0.432,1.181-1.061,1.181h-6.254c-0.551,1.576-1.182,3.032-1.891,4.366v18.77
				c-0.08,0.862-0.471,1.336-1.178,1.414c-0.787-0.078-1.225-0.552-1.299-1.414V107.62c-1.891,2.911-3.855,5.275-5.902,7.084
				c-0.631,0.551-1.26,0.588-1.889,0.12c-0.553-0.552-0.514-1.142,0.119-1.771c4.246-3.935,7.395-8.576,9.441-13.93h-6.729
				c-0.631,0-0.982-0.394-1.063-1.181c0.08-0.785,0.432-1.179,1.063-1.179H492.623z M494.156,115.77
				c0.316,0.861,0.158,1.492-0.473,1.887c-0.785,0.236-1.377,0-1.768-0.709c-1.342-3.306-3.229-6.647-5.666-10.032
				c-0.395-0.709-0.316-1.339,0.236-1.891c0.708-0.39,1.297-0.236,1.77,0.473C490.615,108.881,492.582,112.307,494.156,115.77z"/>
			<path fill="#1FA8DB" d="M526.687,103.018h0.945c0.629,0,0.984,0.357,1.061,1.062c0,0.709-0.314,1.104-0.943,1.181h-1.063v10.389
				c0.154-0.079,0.432-0.235,0.826-0.473c0.156-0.157,0.275-0.274,0.355-0.352c0.629-0.395,1.139-0.357,1.533,0.116
				c0.313,0.629,0.195,1.181-0.354,1.654c-2.283,1.729-4.367,2.948-6.258,3.657c-0.707,0.236-1.178,0.078-1.414-0.474
				c-0.236-0.783-0.041-1.334,0.59-1.649c0.078,0,0.236-0.079,0.473-0.236c0.781-0.395,1.455-0.709,2.005-0.945V105.26h-1.654
				c-0.627,0-0.982-0.352-1.061-1.061c0-0.71,0.314-1.1,0.945-1.182h1.769V96.88c0-0.626,0.393-0.941,1.182-0.941
				c0.707,0,1.061,0.315,1.061,0.941V103.018z M545.337,106.087c1.648-0.076,2.436,0.787,2.359,2.6v4.603
				c0,1.651-0.789,2.48-2.359,2.48h-2.832v4.603c0,0.625,0.354,0.941,1.063,0.941h2.949c0.785,0.157,1.217-0.667,1.297-2.476
				c0.078-0.709,0.434-1.065,1.063-1.065c0.631,0.158,0.943,0.589,0.943,1.297c0.079,2.912-0.943,4.33-3.068,4.251h-3.42
				c-2.051,0.079-3.033-0.866-2.953-2.832v-4.719h-4.131c-0.631,4.324-4.012,6.884-10.15,7.672c-0.865,0.153-1.379-0.121-1.535-0.83
				c0-0.788,0.395-1.261,1.18-1.414c4.879-0.473,7.674-2.284,8.383-5.428h-1.301c-1.73,0-2.596-0.829-2.596-2.48v-4.724
				c0-1.571,0.787-2.396,2.361-2.479H545.337z M543.917,99.948c-0.154,0.871-0.273,1.618-0.35,2.243
				c-0.08,0.162-0.121,0.278-0.121,0.353h5.43c0.551,0,0.865,0.316,0.943,0.945c-0.078,0.71-0.392,1.063-0.943,1.063h-18.529
				c-0.633,0-0.945-0.353-0.945-1.063c0-0.629,0.313-0.945,0.945-0.945h4.248c-0.156-0.232-0.313-0.589-0.471-1.058
				c-0.316-0.63-0.551-1.141-0.709-1.538h-2.715c-0.551,0-0.828-0.311-0.828-0.941c0-0.63,0.277-0.945,0.828-0.945h6.967
				c-0.082-0.158-0.238-0.474-0.477-0.945c-0.076-0.074-0.115-0.153-0.115-0.236c-0.318-0.705-0.119-1.258,0.592-1.65
				c0.705-0.157,1.217,0.116,1.533,0.825c0.074,0.161,0.236,0.473,0.471,0.945c0.236,0.552,0.391,0.903,0.473,1.062h7.553
				c0.551,0,0.826,0.315,0.826,0.945c-0.08,0.631-0.395,0.941-0.943,0.941H543.917z M532.353,109.747h13.221v-1.061
				c0-0.394-0.199-0.594-0.594-0.594h-11.801c-0.553-0.075-0.826,0.12-0.826,0.594V109.747z M532.472,113.169
				c0,0.473,0.193,0.709,0.588,0.709h11.805c0.473-0.078,0.709-0.353,0.709-0.825v-1.297h-13.102V113.169z M541.205,102.544
				l0.117-0.589c0.158-0.704,0.314-1.377,0.475-2.007h-6.139c0.158,0.397,0.354,0.829,0.59,1.303
				c0.158,0.468,0.314,0.904,0.473,1.293H541.205z"/>
		</g>
		<line fill="none" stroke="#1A1A1A" stroke-width="2" stroke-miterlimit="10" x1="352.851" y1="86.563" x2="551.994" y2="86.563"/>
	</g>
</g>
<g>
	<defs>
		<rect id="SVGID_7_" x="-0.001" y="444.667" width="2560" height="1440.477"/>
	</defs>
	<clipPath id="SVGID_2_">
		<use xlink:href="#SVGID_7_"  overflow="visible"/>
	</clipPath>
	<g opacity="0.8" clip-path="url(#SVGID_2_)">
		<g opacity="0.4">
			<defs>
				<rect id="SVGID_9_" x="-86.031" y="425.551" opacity="0.4" width="2813.439" height="2061.128"/>
			</defs>
			<clipPath id="SVGID_4_">
				<use xlink:href="#SVGID_9_"  overflow="visible"/>
			</clipPath>
			<polyline clip-path="url(#SVGID_4_)" fill="none" stroke="#FFFFFF" stroke-width="0.25" stroke-miterlimit="10" points="
				1638.648,1110.554 683.881,111.828 484.994,395.298 810.035,622.575 1001.798,796.8 2407.629,846.743 1354.883,623.467 
				1638.648,1110.554 1580.012,91.252 1845.193,315.285 1549.328,827.144 			"/>
			<polyline clip-path="url(#SVGID_4_)" fill="none" stroke="#FFFFFF" stroke-width="0.25" stroke-miterlimit="10" points="
				628.586,953.683 1150.996,1113.426 1977.982,-688.404 2481.486,1937.965 2184.771,911.168 1310.1,1746.385 1111.298,2119.339 
				2459.158,1319.499 1324.717,1300.679 266.184,428.751 137.516,383.865 			"/>
			<polyline clip-path="url(#SVGID_4_)" fill="none" stroke="#FFFFFF" stroke-width="0.25" stroke-miterlimit="10" points="
				489.568,207.841 945.633,-105.346 1264.537,-119.063 1513.717,-36.764 1781.49,152.975 2196.088,1444.996 			"/>
			<polyline clip-path="url(#SVGID_4_)" fill="none" stroke="#FFFFFF" stroke-width="0.25" stroke-miterlimit="10" points="
				1325.045,897.934 1753.75,422.73 1508.58,700.392 905.592,834.128 900.482,676.783 1437.699,1279.631 1965.17,59.7 
				1485.27,764.349 1123.393,967.889 764.635,1671.146 1266.25,977.531 1043.43,355.987 775.131,763.007 266.184,428.751 
				921.631,345.003 1104.516,88.968 1458.85,216.987 1325.045,897.934 1508.58,700.392 			"/>
			<polyline clip-path="url(#SVGID_4_)" fill="none" stroke="#FFFFFF" stroke-width="0.25" stroke-miterlimit="10" points="
				764.635,1671.146 905.592,834.128 1485.27,764.349 1437.699,1279.631 774.967,316.48 919.633,821.982 1148.5,1015.68 
				1753.75,422.73 1458.85,216.987 1335.404,23.334 1104.516,88.968 818.574,155.265 266.184,428.751 852.297,709.161 
				775.131,763.007 921.631,345.003 1071.506,650.509 1372.492,465.593 1781.49,152.975 			"/>
			<polyline clip-path="url(#SVGID_4_)" fill="none" stroke="#FFFFFF" stroke-width="0.25" stroke-miterlimit="10" points="
				643.848,78.921 489.568,207.841 578.203,-116.405 945.633,-105.346 961.74,-263.725 1264.537,-119.063 1735.871,862.231 
				1513.717,-36.764 1781.49,-82.942 1781.49,152.975 2076.059,226.146 2196.088,1444.996 2227.604,616.007 628.586,953.683 
				933.076,777.23 1666.65,808.516 589.918,165.982 1977.982,-688.404 -425.904,1561.576 2481.486,1937.965 1321.246,1352.854 
				2184.771,911.168 890.146,1897.004 1310.1,1746.385 1305.979,1952.689 1111.298,2119.339 1822.775,984.027 2459.158,1319.499 
				-88.91,904.745 1324.717,1300.679 -113.816,1472.466 266.184,428.751 489.568,207.841 818.574,155.265 945.633,-105.346 
				1104.516,88.968 1264.537,-119.063 1335.404,23.334 1513.717,-36.764 1458.85,216.987 1781.49,152.975 1753.75,422.73 
				2196.088,1444.996 1148.5,1015.68 628.586,953.683 			"/>
			
				<line clip-path="url(#SVGID_4_)" fill="none" stroke="#FFFFFF" stroke-width="0.25" stroke-miterlimit="10" x1="369.068" y1="23.334" x2="489.568" y2="207.841"/>
		</g>
	</g>
</g>
</svg>
