<?xml version="1.0" encoding="utf-8"?>
<!-- Generator: Adobe Illustrator 16.0.0, SVG Export Plug-In . SVG Version: 6.00 Build 0)  -->
<!DOCTYPE svg PUBLIC "-//W3C//DTD SVG 1.1//EN" "http://www.w3.org/Graphics/SVG/1.1/DTD/svg11.dtd">
<svg version="1.1" id="图层_1" xmlns="http://www.w3.org/2000/svg" xmlns:xlink="http://www.w3.org/1999/xlink" x="0px" y="0px"
	 width="2560.006px" height="400px" viewBox="0 0 2560.006 400" enable-background="new 0 0 2560.006 400" xml:space="preserve">
<g>
	<defs>
		<rect id="SVGID_7_" y="-1829.833" width="2560" height="1440.477"/>
	</defs>
	<clipPath id="SVGID_2_">
		<use xlink:href="#SVGID_7_"  overflow="visible"/>
	</clipPath>
	<g opacity="0.8" clip-path="url(#SVGID_2_)">
		<g opacity="0.4">
			<defs>
				<rect id="SVGID_9_" x="-86.03" y="-1848.949" opacity="0.4" width="2813.439" height="2061.128"/>
			</defs>
			<clipPath id="SVGID_4_">
				<use xlink:href="#SVGID_9_"  overflow="visible"/>
			</clipPath>
		</g>
	</g>
</g>
<g>
	<defs>
		<rect id="SVGID_11_" y="460.386" width="2560" height="1440.477"/>
	</defs>
	<clipPath id="SVGID_6_">
		<use xlink:href="#SVGID_11_"  overflow="visible"/>
	</clipPath>
	<g opacity="0.8" clip-path="url(#SVGID_6_)">
		<g opacity="0.4">
			<defs>
				<rect id="SVGID_13_" x="-86.03" y="441.27" opacity="0.4" width="2813.439" height="2061.128"/>
			</defs>
			<clipPath id="SVGID_8_">
				<use xlink:href="#SVGID_13_"  overflow="visible"/>
			</clipPath>
			
				<line clip-path="url(#SVGID_8_)" fill="none" stroke="#FFFFFF" stroke-width="0.25" stroke-miterlimit="10" x1="930.777" y1="52.106" x2="1239.392" y2="1.815"/>
			<polyline clip-path="url(#SVGID_8_)" fill="none" stroke="#FFFFFF" stroke-width="0.25" stroke-miterlimit="10" points="
				1638.65,1126.272 683.882,127.547 484.996,411.017 810.037,638.294 1001.8,812.519 2407.63,862.462 1354.884,639.186 
				1638.65,1126.272 1580.013,106.971 1845.195,331.004 1549.33,842.862 			"/>
			<polyline clip-path="url(#SVGID_8_)" fill="none" stroke="#FFFFFF" stroke-width="0.25" stroke-miterlimit="10" points="
				628.587,969.401 1150.998,1129.145 1977.984,-672.686 2481.487,1953.684 2184.773,926.887 1310.101,1762.104 1111.3,2135.058 
				2459.16,1335.218 1324.718,1316.397 266.185,444.47 137.517,399.584 			"/>
			<polyline clip-path="url(#SVGID_8_)" fill="none" stroke="#FFFFFF" stroke-width="0.25" stroke-miterlimit="10" points="
				489.57,223.56 945.634,-89.627 1264.539,-103.344 1513.718,-21.045 1781.492,168.693 2196.089,1460.715 			"/>
			<polygon clip-path="url(#SVGID_8_)" fill="none" stroke="#FFFFFF" stroke-width="0.25" stroke-miterlimit="10" points="
				2218.265,536.014 1391.697,747.88 1965.171,75.419 1123.394,983.607 			"/>
			<polyline clip-path="url(#SVGID_8_)" fill="none" stroke="#FFFFFF" stroke-width="0.25" stroke-miterlimit="10" points="
				1391.697,747.88 1840.503,1084.74 1965.171,75.419 			"/>
			<polyline clip-path="url(#SVGID_8_)" fill="none" stroke="#FFFFFF" stroke-width="0.25" stroke-miterlimit="10" points="
				1104.517,104.687 1325.046,913.652 1840.503,1084.74 983.824,723.389 1071.507,666.228 775.132,778.726 983.824,723.389 
				2218.265,536.014 1965.171,75.419 			"/>
			<polyline clip-path="url(#SVGID_8_)" fill="none" stroke="#FFFFFF" stroke-width="0.25" stroke-miterlimit="10" points="
				1325.046,913.652 1753.751,438.449 1508.582,716.11 905.593,849.847 900.484,692.502 1437.701,1295.35 1965.171,75.419 
				1485.271,780.067 1123.394,983.607 764.636,1686.865 1266.251,993.25 1043.431,371.706 775.132,778.726 266.185,444.47 
				921.632,360.722 1104.517,104.687 1458.851,232.706 1325.046,913.652 1508.582,716.11 			"/>
			<polyline clip-path="url(#SVGID_8_)" fill="none" stroke="#FFFFFF" stroke-width="0.25" stroke-miterlimit="10" points="
				1104.517,104.687 1071.507,666.228 1071.507,666.228 1840.503,1084.74 2218.265,536.014 764.636,1686.865 			"/>
			<polyline clip-path="url(#SVGID_8_)" fill="none" stroke="#FFFFFF" stroke-width="0.25" stroke-miterlimit="10" points="
				1458.851,232.706 921.632,360.722 818.576,170.983 			"/>
			<polyline clip-path="url(#SVGID_8_)" fill="none" stroke="#FFFFFF" stroke-width="0.25" stroke-miterlimit="10" points="
				3031.123,253.192 1266.251,993.25 983.824,723.389 			"/>
			<polyline clip-path="url(#SVGID_8_)" fill="none" stroke="#FFFFFF" stroke-width="0.25" stroke-miterlimit="10" points="
				764.636,1686.865 905.593,849.847 1485.271,780.067 1437.701,1295.35 774.968,332.199 919.634,837.701 1148.501,1031.398 
				1753.751,438.449 1458.851,232.706 1335.406,39.053 1104.517,104.687 818.576,170.983 266.185,444.47 852.298,724.88 
				775.132,778.726 921.632,360.722 1071.507,666.228 1372.494,481.312 1781.492,168.693 			"/>
			<polyline clip-path="url(#SVGID_8_)" fill="none" stroke="#FFFFFF" stroke-width="0.25" stroke-miterlimit="10" points="
				774.968,332.199 1977.984,-672.686 1437.701,1295.35 2481.487,1953.684 1485.271,780.067 2184.773,926.887 905.593,849.847 
				1310.101,1762.104 764.636,1686.865 1111.3,2135.058 3031.123,253.192 2459.16,1335.218 1043.431,371.706 1324.718,1316.397 
				852.298,724.88 1043.431,371.706 3031.123,253.192 			"/>
			<polyline clip-path="url(#SVGID_8_)" fill="none" stroke="#FFFFFF" stroke-width="0.25" stroke-miterlimit="10" points="
				643.849,94.64 489.57,223.56 578.205,-100.687 945.634,-89.627 961.742,-248.006 1264.539,-103.344 1735.873,877.95 
				1513.718,-21.045 1781.492,-67.224 1781.492,168.693 2076.06,241.864 2196.089,1460.715 2227.605,631.726 628.587,969.401 
				933.078,792.949 1666.652,824.234 589.919,181.701 1977.984,-672.686 -425.903,1577.295 2481.487,1953.684 1321.248,1368.572 
				2184.773,926.887 890.148,1912.723 1310.101,1762.104 1305.98,1968.408 1111.3,2135.058 1822.777,999.746 2459.16,1335.218 
				-88.909,920.464 1324.718,1316.397 -113.815,1488.185 266.185,444.47 489.57,223.56 818.576,170.983 945.634,-89.627 
				1104.517,104.687 1264.539,-103.344 1335.406,39.053 1513.718,-21.045 1458.851,232.706 1781.492,168.693 1753.751,438.449 
				2196.089,1460.715 1148.501,1031.398 628.587,969.401 			"/>
			
				<line clip-path="url(#SVGID_8_)" fill="none" stroke="#FFFFFF" stroke-width="0.25" stroke-miterlimit="10" x1="369.07" y1="39.053" x2="489.57" y2="223.56"/>
			<polyline clip-path="url(#SVGID_8_)" fill="none" stroke="#FFFFFF" stroke-width="0.25" stroke-miterlimit="10" points="
				774.968,332.199 1391.697,747.88 1508.582,716.11 1148.501,1031.398 			"/>
		</g>
	</g>
</g>
<rect x="0.002" y="2.375" fill="#3F9ACD" width="2560.004" height="397.625"/>
</svg>
