<?xml version="1.0" encoding="utf-8"?>
<!-- Generator: Adobe Illustrator 16.0.0, SVG Export Plug-In . SVG Version: 6.00 Build 0)  -->
<!DOCTYPE svg PUBLIC "-//W3C//DTD SVG 1.1//EN" "http://www.w3.org/Graphics/SVG/1.1/DTD/svg11.dtd">
<svg version="1.1" id="图层_1" xmlns="http://www.w3.org/2000/svg" xmlns:xlink="http://www.w3.org/1999/xlink" x="0px" y="0px"
	 width="128px" height="128px" viewBox="0 0 128 128" enable-background="new 0 0 128 128" xml:space="preserve">
<g>
	<path fill="#3899C1" d="M40.167,46.471v10.765H36.45V28.438h8.18c3.111,0,5.524,0.75,7.241,2.249
		c1.717,1.5,2.575,3.645,2.575,6.433c0,2.826-1.004,5.116-3.012,6.87c-2.008,1.754-4.518,2.581-7.53,2.481H40.167z M40.167,31.709
		v11.49h3.44c2.268,0,3.991-0.512,5.168-1.534c1.177-1.022,1.766-2.488,1.766-4.396c0-3.706-2.193-5.56-6.581-5.56H40.167z"/>
	<path fill="#3899C1" d="M89.599,57.235V38.16c0-1.573,0.093-3.464,0.279-5.67h-0.093c-0.323,1.389-0.607,2.355-0.855,2.9
		l-9.5,21.845h-2.063l-9.482-21.678c-0.223-0.495-0.508-1.518-0.855-3.067h-0.112c0.124,1.339,0.186,3.284,0.186,5.838v18.907h-3.55
		V28.438h5.038l8.497,19.744c0.644,1.512,1.072,2.689,1.283,3.532h0.13c0.644-1.772,1.097-2.975,1.357-3.606l8.645-19.67h4.797
		v28.798H89.599z"/>
	<path fill="#3899C1" d="M52.215,99.078H34.702v-3.16l8.366-8.348c2.305-2.306,3.848-4.131,4.629-5.476
		c0.781-1.345,1.171-2.735,1.171-4.174c0-1.636-0.458-2.891-1.375-3.765c-0.917-0.874-2.244-1.311-3.979-1.311
		c-2.566,0-5.014,1.091-7.344,3.272v-3.7c2.268-1.747,4.908-2.621,7.92-2.621c2.59,0,4.635,0.7,6.135,2.101
		c1.5,1.4,2.25,3.285,2.25,5.652c0,1.784-0.48,3.535-1.441,5.252s-2.779,3.901-5.457,6.553l-6.563,6.414v0.074h13.2V99.078z"/>
	<path fill="#3899C1" d="M61.156,97.163c0-0.669,0.229-1.233,0.688-1.691c0.458-0.459,1.028-0.688,1.71-0.688
		c0.694,0,1.271,0.232,1.729,0.697c0.458,0.465,0.688,1.026,0.688,1.683c0,0.645-0.229,1.199-0.688,1.664
		c-0.459,0.465-1.042,0.697-1.748,0.697c-0.682,0-1.249-0.232-1.702-0.697C61.382,98.362,61.156,97.808,61.156,97.163z"/>
	<path fill="#3899C1" d="M75.283,94.653c1.934,1.265,3.947,1.896,6.042,1.896c1.983,0,3.582-0.555,4.797-1.664
		c1.214-1.109,1.822-2.581,1.822-4.415c0-1.847-0.617-3.278-1.85-4.295c-1.234-1.017-3.021-1.524-5.364-1.524
		c-1.128,0-2.647,0.087-4.555,0.26V70.28h14.167v3.216H79.559v8.144c1.079-0.063,1.89-0.093,2.436-0.093
		c3.037,0,5.404,0.769,7.102,2.305c1.698,1.537,2.547,3.656,2.547,6.358c0,2.789-0.911,5.045-2.733,6.768s-4.338,2.584-7.548,2.584
		c-2.689,0-4.716-0.396-6.079-1.189V94.653z"/>
</g>
</svg>
