<?xml version="1.0" encoding="utf-8"?>
<!-- Generator: Adobe Illustrator 16.0.0, SVG Export Plug-In . SVG Version: 6.00 Build 0)  -->
<!DOCTYPE svg PUBLIC "-//W3C//DTD SVG 1.1//EN" "http://www.w3.org/Graphics/SVG/1.1/DTD/svg11.dtd">
<svg version="1.1" id="图层_1" xmlns="http://www.w3.org/2000/svg" xmlns:xlink="http://www.w3.org/1999/xlink" x="0px" y="0px"
	 width="128px" height="128px" viewBox="0 0 128 128" enable-background="new 0 0 128 128" xml:space="preserve">
<g>
	<g>
		<g>
			<path fill="#3899C1" d="M51.214,103.672h-4.009l-0.557,1.887h-3.606l4.295-11.428h3.852l4.294,11.428h-3.698L51.214,103.672z
				 M50.482,101.201l-1.261-4.108l-1.249,4.108H50.482z"/>
			<path fill="#3899C1" d="M63.498,94.131h3.523v6.809c0,0.675-0.105,1.313-0.315,1.912s-0.541,1.125-0.99,1.574
				c-0.449,0.449-0.921,0.765-1.415,0.946c-0.686,0.254-1.51,0.382-2.471,0.382c-0.556,0-1.163-0.039-1.82-0.117
				c-0.658-0.078-1.207-0.232-1.649-0.464c-0.442-0.23-0.846-0.56-1.212-0.985c-0.367-0.426-0.617-0.864-0.753-1.316
				c-0.218-0.727-0.327-1.371-0.327-1.932v-6.809h3.523v6.971c0,0.623,0.173,1.11,0.519,1.46c0.346,0.351,0.825,0.526,1.438,0.526
				c0.608,0,1.085-0.173,1.43-0.519c0.346-0.345,0.519-0.834,0.519-1.468V94.131z"/>
			<path fill="#3899C1" d="M68.556,94.131H79.29v2.822h-3.602v8.605h-3.531v-8.605h-3.602V94.131z"/>
			<path fill="#3899C1" d="M79.898,99.853c0-1.865,0.52-3.318,1.559-4.357c1.04-1.039,2.487-1.559,4.342-1.559
				c1.902,0,3.367,0.51,4.396,1.531s1.543,2.452,1.543,4.291c0,1.336-0.225,2.431-0.675,3.286c-0.449,0.854-1.098,1.52-1.948,1.995
				c-0.85,0.476-1.909,0.714-3.177,0.714c-1.289,0-2.355-0.206-3.199-0.616c-0.845-0.41-1.529-1.061-2.054-1.949
				S79.898,101.188,79.898,99.853z M83.429,99.868c0,1.153,0.215,1.982,0.644,2.486c0.428,0.505,1.011,0.757,1.75,0.757
				c0.758,0,1.345-0.247,1.761-0.741c0.416-0.493,0.624-1.38,0.624-2.658c0-1.075-0.217-1.861-0.651-2.357
				c-0.434-0.496-1.022-0.744-1.766-0.744c-0.712,0-1.283,0.252-1.714,0.756C83.645,97.87,83.429,98.704,83.429,99.868z"/>
		</g>
	</g>
	<path fill="#35A1DC" d="M68.199,56.039c0,2.304-1.87,4.176-4.177,4.176c-2.308,0-4.179-1.872-4.179-4.176
		c0-2.309,1.871-4.182,4.179-4.182C66.329,51.857,68.199,53.73,68.199,56.039z"/>
	<path opacity="0.4" fill="#3899C1" d="M58.11,59.895c-0.23-0.347-0.416-0.714-0.577-1.085c-1.412,0.653-3.188,1.073-5.413,0.983
		c-9.788,0.025-22.264,0.66-18.174,9.227c0.012,0.028,0.027,0.063,0.042,0.094c4.524,10.154,17.064,18.195,25.191,4.028
		c2.546-4.195,3.773-7.538,4.604-10.103C61.571,62.99,59.414,61.889,58.11,59.895z"/>
	<path opacity="0.4" fill="#3899C1" d="M64.021,49.084c0.415,0,0.823,0.043,1.221,0.112c0.229-1.544,0.854-3.259,2.149-5.071
		c5.336-8.199,11.646-18.979,2.248-20.258c-0.038-0.004-0.073-0.01-0.108-0.014c-10.971-1.783-24.573,4.299-17.177,18.863
		c2.117,4.428,4.239,7.287,5.931,9.393C59.537,50.283,61.637,49.084,64.021,49.084z"/>
	<path opacity="0.4" fill="#3899C1" d="M81.059,51.07c-4.906,0.057-8.393,0.775-11.015,1.422c1.128,1.905,1.328,4.313,0.322,6.474
		c-0.179,0.384-0.385,0.732-0.619,1.062c1.304,0.855,2.596,2.147,3.694,4.085c5.186,8.299,12.302,18.565,17.419,10.581
		c0.019-0.031,0.041-0.059,0.062-0.088C97.164,65.402,97.382,50.511,81.059,51.07z"/>
</g>
</svg>
