<?xml version="1.0" encoding="utf-8"?>
<!-- Generator: Adobe Illustrator 16.0.0, SVG Export Plug-In . SVG Version: 6.00 Build 0)  -->
<!DOCTYPE svg PUBLIC "-//W3C//DTD SVG 1.1//EN" "http://www.w3.org/Graphics/SVG/1.1/DTD/svg11.dtd">
<svg version="1.1" id="图层_1" xmlns="http://www.w3.org/2000/svg" xmlns:xlink="http://www.w3.org/1999/xlink" x="0px" y="0px"
	 width="128px" height="128px" viewBox="0 0 128 128" enable-background="new 0 0 128 128" xml:space="preserve">
<g>
	<g>
		<path fill="#18A0C6" d="M23.902,48.934c0-2.934,1.92-4.913,4.912-4.913c3,0,4.918,1.979,4.918,4.913v23.615
			c0,5.875,3.295,8.512,8.93,8.512c5.633,0,8.934-2.637,8.934-8.512V48.934c0-2.934,1.91-4.913,4.91-4.913
			c2.998,0,4.91,1.979,4.91,4.913v22.84c0,11.865-7.308,17.202-18.753,17.202c-11.447,0-18.76-5.337-18.76-17.202V48.934z"/>
		<path fill="#18A0C6" d="M91.033,85.316c-1.02,2.819-2.938,3.417-5.996,3.417c-3.057,0-4.973-0.598-5.988-3.417L66.936,51.273
			c-0.416-1.136-0.596-2.094-0.596-2.874c0-3.303,2.516-4.379,4.977-4.379c2.635,0,4.07,1.382,4.969,4.319l8.869,29.363h0.125
			l9.229-29.363c0.898-2.938,2.34-4.319,4.619-4.319c2.454,0,4.971,1.076,4.971,4.379c0,0.78-0.176,1.738-0.602,2.874L91.033,85.316
			z"/>
	</g>
</g>
</svg>
