<?xml version="1.0" encoding="utf-8"?>
<!-- Generator: Adobe Illustrator 16.0.0, SVG Export Plug-In . SVG Version: 6.00 Build 0)  -->
<!DOCTYPE svg PUBLIC "-//W3C//DTD SVG 1.1//EN" "http://www.w3.org/Graphics/SVG/1.1/DTD/svg11.dtd">
<svg version="1.1" id="图层_1" xmlns="http://www.w3.org/2000/svg" xmlns:xlink="http://www.w3.org/1999/xlink" x="0px" y="0px"
	 width="128px" height="128px" viewBox="0 0 128 128" enable-background="new 0 0 128 128" xml:space="preserve">
<g>
	<path fill="#3899C1" d="M40.136,46.471v10.765h-3.719V28.438h8.181c3.11,0,5.524,0.75,7.241,2.249
		c1.717,1.5,2.575,3.645,2.575,6.433c0,2.826-1.004,5.116-3.012,6.87c-2.008,1.754-4.518,2.581-7.53,2.481H40.136z M40.136,31.709
		v11.49h3.439c2.268,0,3.991-0.512,5.168-1.534c1.177-1.022,1.766-2.488,1.766-4.396c0-3.706-2.194-5.56-6.582-5.56H40.136z"/>
	<path fill="#3899C1" d="M89.567,57.235V38.16c0-1.573,0.093-3.464,0.279-5.67h-0.093c-0.322,1.389-0.607,2.355-0.855,2.9
		l-9.5,21.845h-2.064l-9.481-21.678c-0.223-0.495-0.508-1.518-0.855-3.067h-0.111c0.124,1.339,0.186,3.284,0.186,5.838v18.907
		h-3.551V28.438h5.038l8.496,19.744c0.645,1.512,1.072,2.689,1.283,3.532h0.13c0.645-1.772,1.097-2.975,1.357-3.606l8.645-19.67
		h4.796v28.798H89.567z"/>
	<path fill="#3899C1" d="M34.392,85.246c0-5.081,0.843-8.927,2.528-11.536c1.686-2.608,4.127-3.913,7.325-3.913
		c6.098,0,9.146,4.921,9.146,14.762c0,4.858-0.858,8.573-2.575,11.146c-1.717,2.571-4.125,3.857-7.223,3.857
		c-2.925,0-5.19-1.221-6.795-3.662C35.194,93.457,34.392,89.906,34.392,85.246z M38.11,85.079c0,7.647,1.939,11.471,5.819,11.471
		c3.817,0,5.727-3.886,5.727-11.657c0-8.043-1.872-12.065-5.615-12.065C40.086,72.827,38.11,76.911,38.11,85.079z"/>
	<path fill="#3899C1" d="M61.695,97.163c0-0.669,0.229-1.233,0.688-1.691c0.458-0.459,1.029-0.688,1.71-0.688
		c0.694,0,1.271,0.232,1.729,0.697s0.688,1.026,0.688,1.683c0,0.645-0.229,1.199-0.688,1.664s-1.041,0.697-1.748,0.697
		c-0.682,0-1.249-0.232-1.701-0.697S61.695,97.808,61.695,97.163z"/>
	<path fill="#3899C1" d="M93.125,99.078H76.617v-3.142h6.451V74.073l-6.619,1.914v-3.346l10.244-2.975v26.27h6.432V99.078z"/>
</g>
</svg>
