<?xml version="1.0" encoding="utf-8"?>
<!-- Generator: Adobe Illustrator 16.0.0, SVG Export Plug-In . SVG Version: 6.00 Build 0)  -->
<!DOCTYPE svg PUBLIC "-//W3C//DTD SVG 1.1//EN" "http://www.w3.org/Graphics/SVG/1.1/DTD/svg11.dtd">
<svg version="1.1" id="图层_1" xmlns="http://www.w3.org/2000/svg" xmlns:xlink="http://www.w3.org/1999/xlink" x="0px" y="0px"
	 width="128px" height="128px" viewBox="0 0 128 128" enable-background="new 0 0 128 128" xml:space="preserve">
<g>
	<path fill="#3899C1" d="M66.829,79.322V32.474c0-1.769-1.273-3.211-2.829-3.211c-1.559,0-2.833,1.442-2.833,3.211v46.849
		c-4.252,1.229-7.364,5.139-7.364,9.786c0,5.632,4.566,10.194,10.197,10.194c5.63,0,10.192-4.563,10.192-10.194
		C74.192,84.461,71.079,80.551,66.829,79.322z M66.102,95.173c-0.433,0.047-0.853,0.069-1.252,0.071
		c-1.976,0-3.569-0.572-4.749-1.705c-2.18-2.092-1.993-5.283-1.981-5.42c0.048-0.719,0.666-1.244,1.394-1.215
		c0.719,0.05,1.261,0.67,1.216,1.388c-0.001,0.049-0.098,2.148,1.193,3.372c0.835,0.794,2.146,1.104,3.895,0.909
		c0.705-0.078,1.364,0.437,1.443,1.157C67.336,94.449,66.818,95.095,66.102,95.173z"/>
	<path fill="#3899C1" d="M75.195,72.957v-9.582v-2.614v-5.335v-2.615v-5.338v-2.615v-5.337v-2.614V28.32
		c0-4.72-5.207-8.381-9.69-8.381h-3.014c-4.48,0-9.692,3.661-9.692,8.381v44.637c-5.011,3.157-7.752,8.841-7.752,16.151
		c0,10.449,8.499,18.951,18.952,18.951c10.449,0,18.953-8.502,18.953-18.951C82.953,81.798,80.208,76.114,75.195,72.957z
		 M64,104.139c-8.291,0-15.031-6.743-15.031-15.03c0-3.636,0.87-10.2,6.708-13.29l1.044-0.551V28.32c0-2.297,3.251-4.46,5.771-4.46
		h3.014c2.52,0,5.768,2.163,5.768,4.46v46.947l1.046,0.551c5.838,3.09,6.711,9.654,6.711,13.29
		C79.03,97.396,72.286,104.139,64,104.139z"/>
</g>
</svg>
