<?xml version="1.0" encoding="utf-8"?>
<!-- Generator: Adobe Illustrator 16.0.0, SVG Export Plug-In . SVG Version: 6.00 Build 0)  -->
<!DOCTYPE svg PUBLIC "-//W3C//DTD SVG 1.1//EN" "http://www.w3.org/Graphics/SVG/1.1/DTD/svg11.dtd">
<svg version="1.1" id="图层_1" xmlns="http://www.w3.org/2000/svg" xmlns:xlink="http://www.w3.org/1999/xlink" x="0px" y="0px"
	 width="128px" height="128px" viewBox="0 0 128 128" enable-background="new 0 0 128 128" xml:space="preserve">
<g>
	<path fill-rule="evenodd" clip-rule="evenodd" fill="#18A0C6" d="M29.754,66.291c0.092-8.719,2.799-16.057,8.122-22.449
		c1.212-1.455,2.485-2.75,4.352-3.346c3-0.955,6.239,0.139,8.205,2.818c1.753,2.391,1.72,5.909-0.023,8.387
		c-1.347,1.916-2.874,3.756-3.893,5.838c-2.567,5.248-2.569,10.699-0.081,15.947c3.675,7.752,9.985,11.705,18.556,11.469
		c9.2-0.254,16.746-6.738,18.114-16.23c0.831-5.764-0.688-10.887-4.521-15.316c-1.881-2.174-2.868-4.674-1.99-7.551
		c1.298-4.252,6.021-7.172,10.699-4.918c1.596,0.77,2.588,2.148,3.623,3.477c3.572,4.58,5.885,9.719,6.845,15.467
		c1.066,6.383,0.377,12.566-2.078,18.541c-3.1,7.543-8.313,13.283-15.386,17.229c-7.555,4.219-15.655,5.355-24.116,3.414
		c-7.766-1.783-14.123-5.854-19.088-12.074c-3.976-4.982-6.28-10.684-7.097-16.986C29.82,68.645,29.813,67.26,29.754,66.291z"/>
	<path fill-rule="evenodd" clip-rule="evenodd" fill="#18A0C6" d="M72.152,49.959c0,4.703-0.079,9.408,0.025,14.107
		c0.087,3.963-3.607,7.764-7.192,8.053c-4.118,0.334-7.764-2.633-8.209-6.744c-0.047-0.428-0.063-0.859-0.063-1.289
		c-0.002-9.203,0.001-18.408,0.001-27.611c0-3.459,1.602-6.023,4.59-7.6c4.895-2.584,10.506,1.015,10.78,6.119
		c0.222,4.146,0.064,8.313,0.074,12.471c0.002,0.832,0,1.664,0,2.494C72.155,49.959,72.154,49.959,72.152,49.959z"/>
</g>
</svg>
