<?xml version="1.0" encoding="utf-8"?>
<!-- Generator: Adobe Illustrator 16.0.0, SVG Export Plug-In . SVG Version: 6.00 Build 0)  -->
<!DOCTYPE svg PUBLIC "-//W3C//DTD SVG 1.1//EN" "http://www.w3.org/Graphics/SVG/1.1/DTD/svg11.dtd">
<svg version="1.1" id="图层_1" xmlns="http://www.w3.org/2000/svg" xmlns:xlink="http://www.w3.org/1999/xlink" x="0px" y="0px"
	 width="128px" height="128px" viewBox="0 0 128 128" enable-background="new 0 0 128 128" xml:space="preserve">
<g>
	<g>
		<path fill="#3899C1" d="M81.28,52.155c-15.684-18.427-17.142-25.084-17.272-26h-0.015c-0.131,0.916-1.591,7.573-17.277,26
			c-18.314,21.523-7.722,48.439,17.15,49.688h0.267C89.001,100.595,99.601,73.679,81.28,52.155z M67.131,92.358
			c-0.328,1.438-1.606,2.412-3.022,2.412c-0.226,0-0.457-0.027-0.691-0.08c-15.573-3.541-18.516-17.392-17.898-24.222
			c0.158-1.708,1.663-2.957,3.368-2.806c1.706,0.15,2.96,1.654,2.811,3.355c-0.052,0.637-1.001,14.425,13.096,17.63
			C66.463,89.029,67.51,90.688,67.131,92.358z"/>
	</g>
</g>
</svg>
