<?xml version="1.0" encoding="utf-8"?>
<!-- Generator: Adobe Illustrator 16.0.0, SVG Export Plug-In . SVG Version: 6.00 Build 0)  -->
<!DOCTYPE svg PUBLIC "-//W3C//DTD SVG 1.1//EN" "http://www.w3.org/Graphics/SVG/1.1/DTD/svg11.dtd">
<svg version="1.1" id="图层_1" xmlns="http://www.w3.org/2000/svg" xmlns:xlink="http://www.w3.org/1999/xlink" x="0px" y="0px"
	 width="128px" height="128px" viewBox="0 0 128 128" enable-background="new 0 0 128 128" xml:space="preserve">
<g>
	<path fill-rule="evenodd" clip-rule="evenodd" fill="#1290BE" d="M64.006,106.308c-23.747-0.439-42.307-18.736-42.268-42.398
		c0.041-24.037,19.023-42.299,42.351-42.217c23.743,0.082,42.137,18.693,42.173,42.207
		C106.298,87.478,87.781,105.864,64.006,106.308z M99.624,63.903c-0.047-19.824-16.008-35.682-35.816-35.582
		c-19.709,0.098-35.543,16.088-35.43,35.775c0.114,19.768,15.996,35.545,35.718,35.482C83.828,99.517,99.672,83.606,99.624,63.903z"
		/>
	<path fill-rule="evenodd" clip-rule="evenodd" fill="#1490BF" d="M38.8,63.835c0.079,6.877,2.563,12.807,7.217,17.803
		c1.156,1.242,1.23,2-0.212,2.947c-0.952,0.627-1.783,1.439-2.655,2.184c-0.562,0.479-1.037,0.645-1.593-0.063
		c-0.533-0.678-0.671-1.264,0.151-1.723c1.291-0.721,0.993-1.414,0.186-2.35c-3.495-4.057-5.59-8.793-6.497-14.043
		c-0.182-1.057-0.355-1.703-1.629-1.355c-0.722,0.197-1.384,0.109-1.512-0.908c-0.133-1.064,0.379-1.352,1.305-1.34
		c1.168,0.014,1.416-0.668,1.458-1.727c0.267-6.564,2.339-12.488,6.552-17.574c0.754-0.908,0.517-1.412-0.237-2.01
		c-0.701-0.557-0.958-1.111-0.173-1.877c0.73-0.717,1.266-0.432,1.742,0.184c0.801,1.033,1.412,0.777,2.306,0.004
		c4.558-3.945,9.841-6.291,15.881-6.764c1.233-0.096,1.955-0.391,1.763-1.781c-0.116-0.842,0.177-1.297,1.146-1.295
		c0.954,0.002,1.278,0.428,1.16,1.279c-0.192,1.381,0.506,1.697,1.75,1.795c6.037,0.477,11.319,2.83,15.886,6.762
		c0.891,0.768,1.494,1.039,2.299,0.002c0.469-0.605,1.005-0.912,1.741-0.193c0.78,0.764,0.556,1.311-0.157,1.875
		c-0.747,0.592-1.013,1.1-0.252,2.014c4.186,5.025,6.231,10.895,6.543,17.381c0.057,1.191,0.281,2.002,1.663,1.945
		c0.935-0.039,1.209,0.426,1.117,1.309c-0.106,1.012-0.769,1.133-1.499,0.918c-1.238-0.367-1.468,0.193-1.648,1.287
		c-0.894,5.395-3.081,10.217-6.698,14.35c-0.687,0.785-0.834,1.35,0.181,1.943c0.73,0.428,1.127,0.939,0.425,1.832
		c-0.744,0.945-1.314,0.475-1.879-0.07c-1.189-1.146-3.288-1.867-3.51-3.328c-0.206-1.377,1.739-2.467,2.67-3.734
		c5.748-7.805,7.142-16.316,3.376-25.25c-3.69-8.756-10.492-13.979-19.999-15.203C52.094,37.116,38.875,48.737,38.8,63.835z"/>
	<path fill-rule="evenodd" clip-rule="evenodd" fill="#1590BF" d="M74.316,54.675c-1.93,2.186-3.846,4.385-5.8,6.551
		c-0.441,0.488-0.44,0.918-0.351,1.539c0.508,3.527-1.238,5.59-4.741,5.418c-1.656-0.08-2.08,1.209-2.979,2.008
		c-0.645,0.574-1.132,1.932-1.909,1.604c-1.031-0.438-1.789-1.561-2.61-2.439c-0.358-0.383,0.034-0.697,0.315-0.939
		c0.771-0.664,1.537-1.338,2.345-1.955c0.81-0.617,1.176-1.295,1.158-2.402c-0.05-3,2.199-4.908,5.147-4.289
		c1.198,0.252,1.89-0.094,2.696-0.785c1.828-1.572,3.706-3.086,5.564-4.621c0.381-0.146,4.387-3.904,4.762-3.902
		C78.23,50.464,74.489,54.468,74.316,54.675z"/>
</g>
</svg>
