<?xml version="1.0" standalone="no"?><!DOCTYPE svg PUBLIC "-//W3C//DTD SVG 1.1//EN" "http://www.w3.org/Graphics/SVG/1.1/DTD/svg11.dtd"><svg width="200" height="200" viewBox="0 0 200 200" version="1.1" xmlns="http://www.w3.org/2000/svg" xmlns:xlink="http://www.w3.org/1999/xlink"><defs><style type="text/css"><![CDATA[
@font-face {
  font-family: "ifont";
  src: url("//at.alicdn.com/t/font_1442373896_4754455.eot?#iefix") format("embedded-opentype"), url("//at.alicdn.com/t/font_1442373896_4754455.woff") format("woff"), url("//at.alicdn.com/t/font_1442373896_4754455.ttf") format("truetype"), url("//at.alicdn.com/t/font_1442373896_4754455.svg#ifont") format("svg");
}

]]></style></defs><g class="transform-group"><g transform="scale(0.1953125, 0.1953125)"><path d="M759.177054 700.420347 534.163277 526.973016c-27.567869-22.685675 8.005324-37.57478 8.005324-37.57478l212.435297-149.683091c32.014134-16.101723 7.996115-64.408939 7.996115-64.408939l-245.780753-199.647039c-63.267952-31.117718-80.990592 32.204469-80.990592 32.204469l-1.277086 303.72342-111.73685-86.823438c-34.251082-34.477232-64.173578-4.446265-64.173578-4.446265s-18.538215 33.771151 8.141424 56.764841l168.476109 139.722228L283.066449 642.124639c0 0-33.028231 17.968234-27.522844 60.795645 24.198122 28.554336 64.98813 1.711991 64.98813 1.711991l113.838721-110.714568 1.267876 334.777693c0 55.959499 89.186252 11.500938 89.186252 11.500938L759.177054 756.768703C787.188015 733.005486 759.177054 700.420347 759.177054 700.420347z" fill="#272636"></path></g></g></svg>