<?xml version="1.0" standalone="no"?><!DOCTYPE svg PUBLIC "-//W3C//DTD SVG 1.1//EN" "http://www.w3.org/Graphics/SVG/1.1/DTD/svg11.dtd"><svg width="221.2890625" height="200" viewBox="0 0 221.2890625 200" version="1.1" xmlns="http://www.w3.org/2000/svg" xmlns:xlink="http://www.w3.org/1999/xlink"><defs><style type="text/css"><![CDATA[
@font-face {
  font-family: "ifont";
  src: url("//at.alicdn.com/t/font_1442373896_4754455.eot?#iefix") format("embedded-opentype"), url("//at.alicdn.com/t/font_1442373896_4754455.woff") format("woff"), url("//at.alicdn.com/t/font_1442373896_4754455.ttf") format("truetype"), url("//at.alicdn.com/t/font_1442373896_4754455.svg#ifont") format("svg");
}

]]></style></defs><g class="transform-group"><g transform="scale(0.1953125, 0.1953125)"><path d="M240.168512 706.817175l-122.365649 0L117.802863 552.78855 0 530.112881l0 493.887119 117.802863-40.78855L117.802863 810.931677l190.254388 0L412.310019 670.591412l-135.915744-72.451526L240.168512 706.817175 240.168512 706.817175zM856.283014 738.480151 1132.677289 561.775857 271.831488 0l-99.689981 0-135.915744 212.930057 0 72.451526 756.593033 457.661356 63.464218 0L856.283014 738.480151 856.283014 738.480151zM752.030246 774.705914 99.689981 353.408588 31.662976 425.860113l756.593033 457.661356 68.027005 0 36.225763-36.225763 36.225763-104.252768c0 0-99.689981 72.451526-104.252768 72.451526C783.831488 788.394275 752.030246 774.705914 752.030246 774.705914L752.030246 774.705914z" fill="#272636"></path></g></g></svg>