<?xml version="1.0" standalone="no"?><!DOCTYPE svg PUBLIC "-//W3C//DTD SVG 1.1//EN" "http://www.w3.org/Graphics/SVG/1.1/DTD/svg11.dtd"><svg width="200" height="200" viewBox="0 0 200 200" version="1.1" xmlns="http://www.w3.org/2000/svg" xmlns:xlink="http://www.w3.org/1999/xlink"><defs><style type="text/css"><![CDATA[
@font-face {
  font-family: "ifont";
  src: url("//at.alicdn.com/t/font_1442373896_4754455.eot?#iefix") format("embedded-opentype"), url("//at.alicdn.com/t/font_1442373896_4754455.woff") format("woff"), url("//at.alicdn.com/t/font_1442373896_4754455.ttf") format("truetype"), url("//at.alicdn.com/t/font_1442373896_4754455.svg#ifont") format("svg");
}

]]></style></defs><g class="transform-group"><g transform="scale(0.1953125, 0.1953125)"><path d="M987.071949 419.624103l-3.266393 16.72594c-1.816369 9.235338-10.809183 14.838963-20.113083 12.508895L845.828065 419.36316c-3.312442-0.823761-5.980201-2.752694-8.269337-5.048993-3.781116-2.687202-6.584975-6.723122-7.40976-11.546987l-17.615193-103.783715-89.288582-23.0029c-8.966209-2.295276-21.834284-11.353582-25.317619-35.606962l-16.312524-96.143711-95.983051-24.02109c-9.29776-2.324952-15.373129-11.706623-13.57211-20.929682l3.273557-16.726963c1.810229-9.234315 10.80816-14.838963 20.111037-12.518105l117.866455 29.501918c3.306302 0.830925 5.979178 2.75167 8.264221 5.048993 3.791349 2.691295 6.584975 6.729262 7.416923 11.55108l19.461237 114.76686 97.8117 25.183566c7.994068 2.059915 13.218046 9.634428 13.110599 17.664312 0.76441 1.508353 1.531889 3.03308 1.831718 4.774747l16.310477 96.138594 95.985098 24.026206C982.799646 401.021419 988.875015 410.402067 987.071949 419.624103L987.071949 419.624103 987.071949 419.624103zM94.677313 540.40391 94.677313 540.40391c9.199523-1.913583 18.652825 4.049223 21.096481 13.319353l25.178449 95.689363 96.327906 15.154141c1.74576 0.278339 3.278673 1.027399 4.796236 1.774413 8.027837-0.203638 15.664771 4.929266 17.820877 12.897751l26.357298 97.502661 114.991987 18.080797c4.832052 0.773619 8.902764 3.518127 11.639085 7.27673 2.323928 2.257413 4.27742 4.906753 5.148253 8.202822l30.916127 117.503181c2.432399 9.274224-3.063779 18.339694-12.275581 20.260439l-16.687054 3.474125c-9.199523 1.911536-18.653849-4.050246-21.091364-13.319353l-25.173332-95.687316-96.333022-15.156188c-24.294312-3.191692-33.506115-15.950274-35.908838-24.88783l-24.074302-89.00615-103.987353-16.366759c-4.833075-0.76748-8.901741-3.52222-11.634991-7.270591-2.323928-2.261507-4.284583-4.906753-5.148253-8.207939L65.724911 564.132334c-2.441609-9.275247 3.053546-18.334577 12.266371-20.261463L94.677313 540.40391 94.677313 540.40391zM879.072213 629.887944 623.555725 883.703697c-25.663496 25.488511-66.878177 24.830525-92.065835-1.477654L109.655446 441.694771c-25.190729-26.290783-24.811082-68.27499 0.842181-93.762477l255.526721-253.820869c25.654286-25.482371 66.874083-24.820292 92.055602 1.477654l421.849794 440.528202C905.111263 562.421366 904.725476 604.40148 879.072213 629.887944L879.072213 629.887944 879.072213 629.887944zM833.677327 558.818305 434.642145 142.112672c-12.593829-13.149485-33.205263-13.487176-46.029336-0.744967L156.311045 372.105856c-12.82919 12.743232-13.012362 33.741475-0.419556 46.89096l399.041322 416.715867c12.58769 13.150508 33.1981 13.477966 46.027289 0.733711l232.286414-230.734058C846.071611 592.974219 846.270133 571.96779 833.677327 558.818305L833.677327 558.818305 833.677327 558.818305zM521.365298 729.669508c-6.411013 6.367011-16.71366 6.196119-23.019273-0.36839L190.529381 407.830499c-6.300496-6.565533-6.213515-17.075911 0.211824-23.443945l209.049177-207.66362c6.42534-6.379291 16.72594-6.219655 23.02132 0.379647l307.835064 321.451176c6.29231 6.583952 6.191003 17.073864-0.218988 23.444968L521.365298 729.669508 521.365298 729.669508 521.365298 729.669508zM419.089937 228.493018l-179.174776 175.834704 273.631054 282.356786L692.710758 510.845711 419.089937 228.493018 419.089937 228.493018 419.089937 228.493018zM213.843366 659.733693" fill="#272636"></path></g></g></svg>