<?xml version="1.0" standalone="no"?><!DOCTYPE svg PUBLIC "-//W3C//DTD SVG 1.1//EN" "http://www.w3.org/Graphics/SVG/1.1/DTD/svg11.dtd"><svg class="icon" style="" viewBox="0 0 1024 1024" version="1.1" xmlns="http://www.w3.org/2000/svg" p-id="2316" xmlns:xlink="http://www.w3.org/1999/xlink" width="200" height="200"><defs><style type="text/css"><![CDATA[

]]></style></defs><path d="M287.778774 100.603279l0 680.428014 95.123474 0 0 142.365428c4.421706-1.439792 7.373944-2.176572 10.211573-3.360538 111.668289-46.479591 223.305879-93.075839 335.041706-139.303696 6.27696-2.596128 8.072863-6.040576 8.065699-14.102183-0.193405-201.531969-0.166799-403.065985-0.172939-604.600001-0.004093-20.215414 0-40.433898 0-61.426001C586.634326 100.603279 437.457772 100.603279 287.778774 100.603279L287.778774 100.603279zM409.940045 878.428553c-0.179079-4.552689-0.39295-7.363711-0.39295-10.172687-0.01842-197.60452 0.026606-395.20904-0.180102-592.811514-0.00614-8.362458 2.391467-11.641131 8.391111-14.021342 94.368274-37.442774 188.673104-75.145467 283.000446-112.750947 2.559289-1.02126 5.196349-1.720178 8.898671-2.930749l0 11.924587c0 195.118909-0.039909 390.235772 0.13303 585.351612 0.008186 8.100492-1.916653 11.533684-8.184403 14.121626-71.185272 29.347398-142.245701 59.171658-213.347063 88.827071C462.545146 856.689437 436.799786 867.298052 409.940045 878.428553L409.940045 878.428553zM646.760728 133.712351c-0.036839 0.558725-0.075725 1.115404-0.110517 1.674129-2.117221 0.916882-4.218068 1.893116-6.349615 2.741437-82.443687 32.855292-164.866908 65.811892-247.39553 98.341772-7.323802 2.889817-10.039657 6.534833-10.018168 16.776082 0.324388 159.877267 0.227174 319.753511 0.227174 479.634872l0 14.518668-68.848041 0L314.266032 133.717468C425.482019 133.712351 536.120862 133.712351 646.760728 133.712351L646.760728 133.712351zM646.760728 133.712351" p-id="2317"></path><path d="M476.417085 441.652815l-24.692379 0 0 19.401886c2.635013 0.23536 5.070482 0.449231 7.870248 0.697895l0 71.695902c-2.409886 0.267083-4.837168 0.532119-7.760754 0.858554l0 19.262716 24.580838 0C476.417085 516.269233 476.417085 479.134475 476.417085 441.652815L476.417085 441.652815zM476.417085 441.652815" p-id="2318"></path></svg>