<?xml version="1.0" standalone="no"?><!DOCTYPE svg PUBLIC "-//W3C//DTD SVG 1.1//EN" "http://www.w3.org/Graphics/SVG/1.1/DTD/svg11.dtd"><svg class="icon" style="" viewBox="0 0 1024 1024" version="1.1" xmlns="http://www.w3.org/2000/svg" p-id="3108" xmlns:xlink="http://www.w3.org/1999/xlink" width="200" height="200"><defs><style type="text/css"><![CDATA[

]]></style></defs><path d="M930.909091 370.036364l-23.272727 0 0-69.818182c0-39.563636-30.254545-69.818182-69.818182-69.818182L116.363636 230.4c-39.563636 0-69.818182 30.254545-69.818182 69.818182l0 395.636364c0 39.563636 30.254545 69.818182 69.818182 69.818182l721.454545 0c39.563636 0 69.818182-30.254545 69.818182-69.818182l0-69.818182 23.272727 0c25.6 0 46.545455-20.945455 46.545455-46.545455l0-162.909091C977.454545 390.981818 956.509091 370.036364 930.909091 370.036364zM837.818182 695.854545 116.363636 695.854545l0-395.636364 721.454545 0L837.818182 695.854545z" p-id="3109"></path><path d="M209.454545 370.036364l116.363636 0 0 256-116.363636 0 0-256Z" p-id="3110"></path><path d="M418.909091 370.036364l116.363636 0 0 256-116.363636 0 0-256Z" p-id="3111"></path><path d="M628.363636 370.036364l116.363636 0 0 256-116.363636 0 0-256Z" p-id="3112"></path></svg>