<?xml version="1.0" encoding="utf-8"?>
<!-- Generator: Adobe Illustrator 17.0.0, SVG Export Plug-In . SVG Version: 6.00 Build 0)  -->
<!DOCTYPE svg PUBLIC "-//W3C//DTD SVG 1.1//EN" "http://www.w3.org/Graphics/SVG/1.1/DTD/svg11.dtd">
<svg version="1.1" id="图层_1" xmlns="http://www.w3.org/2000/svg" xmlns:xlink="http://www.w3.org/1999/xlink" x="0px" y="0px"
	 width="200px" height="200px" viewBox="0 0 200 200" enable-background="new 0 0 200 200" xml:space="preserve">
<path fill="#FFFFFF" d="M100-15.44c-63.756,0-115.441,51.685-115.441,115.441c0,63.756,51.685,115.439,115.441,115.439
	s115.441-51.683,115.441-115.439C215.441,36.245,163.756-15.44,100-15.44z M100,200.06c-55.261,0-100.053-44.799-100.053-100.06
	C-0.054,44.74,44.739-0.056,100-0.056c55.26,0,100.061,44.797,100.061,100.057C200.061,155.262,155.26,200.06,100,200.06z"/>
<path d="M161.289,66.098l-57.959,60.005c2.626,11.438-0.419,23.914-9.329,32.823c-13.78,13.78-36.117,13.78-49.893,0
	c-13.776-13.774-13.776-36.111,0-49.889c7.802-7.804,18.342-11.093,28.52-10.049l59.722-61.829
	c6.935-6.939,18.833-6.287,25.775,0.65l2.511,2.514C167.574,47.26,168.224,59.16,161.289,66.098z M154.484,46.064l-1.586-1.589
	c-4.381-4.381-11.901-4.793-16.287-0.41l-58.5,59.826c-1.102,3.446-6.321,3.796-6.321,3.796c-7.651-0.795-15.582,1.73-21.445,7.592
	c-10.327,10.33-10.327,27.08,0,37.407c10.33,10.332,27.08,10.332,37.41,0c7.073-7.073,9.298-17.161,6.682-26.131
	c0,0-0.56-3.011,2.384-4.82l16.225-16.596l0.491,0.462l3.901-4.297L117.095,101l7.069-7.228l0.412,0.396l3.905-3.901l-0.455-0.441
	l10.912-11.159l-7.123-6.832l3.901-3.903l7.079,6.791l7.109-7.269l-10.995-10.993l3.905-3.903l10.948,10.95l1.134-1.159
	C159.281,57.964,158.869,50.447,154.484,46.064z M124.15,86.096l-6.177-5.942l-3.901,3.901l6.22,5.985l-7.242,7.397l-4.244-3.979
	l-3.901,3.901l4.219,4.093L87.325,123.73c4.497,8.019,3.428,18.319-3.399,25.146c-8.221,8.221-21.549,8.221-29.771,0
	c-8.221-8.223-8.221-21.555,0-29.775c5.758-5.754,13.99-7.386,21.246-5.087l42.282-43.211c2.601-2.595,7.051-2.351,9.648,0.244
	l0.942,0.943c2.594,2.595,2.839,7.049,0.239,9.644L124.15,86.096z M60.036,123.167c-9.066,7.887-3.417,20.964-3.417,18.596
	c1.972-18.923,19.317-19.25,19.317-19.25S69.106,115.283,60.036,123.167z"/>
<path d="M143.857,167.74c-9.767,0-17.692-7.918-17.692-17.685c0-9.764,17.692-39.293,17.692-39.293s17.695,29.53,17.695,39.293
	C161.553,159.821,153.632,167.74,143.857,167.74z M149.275,158.404c-9.214,0-16.788-7.024-17.663-16.002
	c-1.344,2.155-2.131,4.69-2.131,7.416c0,7.768,6.3,14.065,14.073,14.065c5.028,0,9.428-2.647,11.92-6.612
	C153.541,157.99,151.457,158.404,149.275,158.404z"/>
</svg>
