<?xml version="1.0" encoding="utf-8"?>
<!-- Generator: Adobe Illustrator 16.0.0, SVG Export Plug-In . SVG Version: 6.00 Build 0)  -->
<!DOCTYPE svg PUBLIC "-//W3C//DTD SVG 1.1//EN" "http://www.w3.org/Graphics/SVG/1.1/DTD/svg11.dtd">
<svg version="1.1" id="图层_1" xmlns="http://www.w3.org/2000/svg" xmlns:xlink="http://www.w3.org/1999/xlink" x="0px" y="0px"
	 width="128px" height="128px" viewBox="0 0 128 128" enable-background="new 0 0 128 128" xml:space="preserve">
<g>
	<path fill="#3DB5DB" d="M68.555,19.964c-9.975,0-18.417,6.504-21.351,15.5c-5.608,1.246-10.18,5.208-12.276,10.441
		c-7.582,0.256-13.653,6.469-13.653,14.112c0,7.633,6.049,13.834,13.614,14.111v0.026h33.929V19.974
		C68.728,19.973,68.643,19.964,68.555,19.964z"/>
	<path fill="#1290BE" d="M90.832,39.669C89.48,28.651,80.168,20.105,68.817,19.974v54.182h21.387v-0.039
		c9.19-0.398,16.522-7.952,16.522-17.239C106.726,47.802,99.725,40.375,90.832,39.669z"/>
	<path fill="#3DB5DB" d="M47.526,79.194l-13.655,3.665l-1.159,0.312c-1.354,0.445-2.631,1.2-3.708,2.277
		c-3.679,3.676-3.679,9.639,0,13.316l19.422-19.422C48.236,79.153,47.921,79.089,47.526,79.194z"/>
	<path fill="#1290BE" d="M44.599,95.064l0.31-1.167l3.668-13.653c0.106-0.394,0.04-0.712-0.15-0.901L29.005,98.765
		c3.676,3.677,9.642,3.677,13.32,0C43.398,97.69,44.151,96.419,44.599,95.064z"/>
	<path fill="#3DB5DB" d="M90.986,82.021l-13.655,3.665L76.169,86c-1.354,0.445-2.628,1.198-3.705,2.273
		c-3.678,3.679-3.678,9.642,0,13.318l19.423-19.421C91.694,81.978,91.381,81.915,90.986,82.021z"/>
	<path fill="#1290BE" d="M88.058,97.892l0.313-1.168l3.666-13.65c0.105-0.396,0.041-0.713-0.149-0.902l-19.423,19.421
		c3.677,3.679,9.642,3.681,13.318,0C86.858,100.517,87.611,99.245,88.058,97.892z"/>
	<path fill="#3DB5DB" d="M61.656,94.484l-8.287,2.226l-0.705,0.188c-0.822,0.271-1.595,0.727-2.25,1.382
		c-2.231,2.233-2.231,5.853,0,8.085l11.79-11.789C62.087,94.46,61.896,94.422,61.656,94.484z"/>
	<path fill="#1290BE" d="M59.879,104.116l0.19-0.707l2.225-8.287c0.064-0.239,0.023-0.432-0.091-0.547l-11.79,11.789
		c2.232,2.23,5.853,2.23,8.083,0C59.151,105.709,59.608,104.937,59.879,104.116z"/>
</g>
</svg>
