<?xml version="1.0" standalone="no"?><!DOCTYPE svg PUBLIC "-//W3C//DTD SVG 1.1//EN" "http://www.w3.org/Graphics/SVG/1.1/DTD/svg11.dtd"><svg width="200" height="200" viewBox="0 0 200 200" version="1.1" xmlns="http://www.w3.org/2000/svg" xmlns:xlink="http://www.w3.org/1999/xlink"><defs><style type="text/css"><![CDATA[
@font-face {
  font-family: "ifont";
  src: url("//at.alicdn.com/t/font_1442373896_4754455.eot?#iefix") format("embedded-opentype"), url("//at.alicdn.com/t/font_1442373896_4754455.woff") format("woff"), url("//at.alicdn.com/t/font_1442373896_4754455.ttf") format("truetype"), url("//at.alicdn.com/t/font_1442373896_4754455.svg#ifont") format("svg");
}

]]></style></defs><g class="transform-group"><g transform="scale(0.1953125, 0.1953125)"><path d="M944.689165 483.786425c-2.155083-5.626137-5.767354-15.032368-13.159718-24.509207-23.006993-29.457916-63.61997-83.390245-81.21572-106.868983-18.872836-25.235754-38.241976-33.628912-55.343469-41.046858-2.998287-1.296529-6.014994-2.592035-9.103332-4.02978-22.6253-10.647501-60.743456-12.475126-70.291926-12.706393l-187.261964 9.121751c-1.206478 0.071631-2.40477 0.213871-3.575432 0.444115L366.711498 96.237855c-12.360516-15.45704-35.316344-15.45704-48.110741-5.732561L99.972411 256.896928c-17.081027 12.369725-15.750729 32.67212-7.674796 43.584658l289.861714 381.479341c9.273201 11.482519 31.774681 19.875676 50.320059 7.061836l36.150338-27.487028c14.862499 19.643386 30.079062 39.804565 45.306882 59.947324 46.815235 61.98882 93.665263 123.976616 129.886209 171.644265 13.489222 17.726733 45.023426 38.312584 82.292238 41.596374 5.571902 0.497327 11.364839 0.798179 17.372669 0.798179 32.014134 0 64.668859-8.322549 102.823853-26.229384 87.064938-40.799218 93.718475-98.848309 102.930277-179.186032l2.970658-25.536606C965.567681 596.228333 963.473997 526.821567 944.689165 483.786425zM901.760446 698.323593l-3.059686 25.997094c-8.936533 77.92579-12.636808 110.170169-73.969689 138.954749-31.136138 14.589276-56.964386 21.386076-81.243349 21.386076-4.461615 0-8.740058-0.232291-12.900821-0.585331-22.511713-1.989307-41.278125-15.139815-46.291302-21.74014-36.193317-47.614437-82.993203-109.550045-129.771599-171.503049-48.607044-64.34754-97.216135-128.678708-133.74612-176.701444l-1.215688-1.633197c-3.193739-4.719488-5.572926-9.866718-7.028067-15.420201-3.566222-13.168927-1.774413-26.904767 5.022387-38.705534 6.779404-11.784394 17.763572-20.249183 30.915104-23.781636 4.337795-1.152243 8.783037-1.755993 13.19451-1.755993 15.945157 0 31.171953 7.66661 40.931225 20.656459l75.032904 95.015004c4.099365 5.376451 10.168594 8.90788 16.877389 9.813506 6.67298 0.798179 13.521968-0.940418 18.865673-5.075599l37.434587-28.801976c2.068102-1.597381 3.897773-3.496637 5.386684-5.644557 2.316765-3.335978 13.5936-21.171182 8.963139-44.684712-2.787486-14.126742-14.70491-28.696576-18.261922-32.547277l-68.537979-89.336678 137.571239-6.7968c14.163581 0.497327 38.493709 3.319605 48.305169 7.915273 3.567245 1.650593 7.064906 3.176342 10.5421 4.684696 14.481829 6.264681 24.065092 10.435677 34.819017 24.827455 17.746176 23.708981 58.70503 78.030168 81.882915 107.702977 2.697435 3.478218 4.294816 7.701402 5.732561 11.428284l1.846044 4.578272C908.405797 527.956414 916.499126 578.551742 901.760446 698.323593zM297.485857 911.521253c-105.375979 2.479471-202.282053-68.429509-228.344638-174.891216-11.419074-46.577828-8.000208-94.780667 9.852392-139.456169 5.782703-14.497179 22.196535-21.557992 36.71111-15.775288 14.478759 5.783727 21.523199 22.23235 15.766079 36.728506-13.477966 33.672914-16.066931 70.01768-7.457856 105.051591 22.685675 92.6614 116.649743 149.508106 209.198579 126.931924 15.154141-3.622504 30.459732 5.566786 34.152844 20.72809 3.694135 15.162328-5.566786 30.452569-20.710694 34.143635C330.213235 909.010059 313.728796 911.137513 297.485857 911.521253zM333.459163 787.068799c-64.820308 1.52575-124.45143-42.069141-140.481522-107.602693-6.92983-28.275997-4.924149-57.665351 5.811356-85.005023 5.729491-14.497179 22.10546-21.642926 36.617989-15.950274 14.512529 5.692652 21.687952 22.068621 15.95846 36.616966-6.429433 16.410762-7.638981 34.012651-3.514033 50.90539 11.107989 45.394886 57.18235 73.332169 102.476953 62.129013 15.157211-3.547803 30.443359 5.605671 34.136471 20.73116 3.711532 15.143908-5.54939 30.449499-20.702508 34.142611C353.623411 785.511327 343.491657 786.832416 333.459163 787.068799zM856.302115 350.416881M314.537208 753.61692" fill="#272636"></path></g></g></svg>